<svg xmlns="http://www.w3.org/2000/svg" version="1.1" xmlns:xlink="http://www.w3.org/1999/xlink" xmlns:svgjs="http://svgjs.com/svgjs" width="1500" height="1000" preserveAspectRatio="none" viewBox="0 0 1500 1000"><g mask="url(&quot;#SvgjsMask1042&quot;)" fill="none"><rect width="1500" height="1000" x="0" y="0" fill="rgba(43, 43, 43, 1)"></rect><path d="M0,478.462C106.233,475.783,215.933,530.764,312.255,485.878C411.988,439.402,469.489,335.3,518.551,236.814C568.928,135.687,605.055,26.852,597.064,-85.845C588.718,-203.546,569.87,-342.647,472.713,-409.608C374.307,-477.43,240.361,-401.602,121.454,-413.636C31.332,-422.757,-49.035,-486.055,-138.433,-471.458C-232.901,-456.033,-324.911,-407.885,-382.413,-331.363C-438.532,-256.68,-433.132,-156.637,-444.661,-63.933C-455.959,26.915,-468.444,115.623,-449.131,205.111C-425.973,312.412,-416.314,444.818,-322.544,501.889C-228.557,559.092,-109.991,481.236,0,478.462" fill="#222222"></path><path d="M1500 1551.8110000000001C1625.964 1586.614 1762.7 1647.894 1881.779 1594.059 2002.307 1539.569 2081.665 1407.085 2107.201 1277.3 2131.074 1155.97 2026.3809999999999 1049.165 2013.184 926.215 1999.231 796.218 2106.728 646.8340000000001 2028.3020000000001 542.2239999999999 1951.063 439.198 1787.291 474.495 1659.995 455.10799999999995 1550.359 438.41099999999994 1440.55 403.929 1334.562 436.57000000000005 1229.234 469.00800000000004 1162.449 563.519 1078.009 634.3430000000001 975.454 720.361 791.938 763.556 785.323 897.245 778.493 1035.283 959.297 1101.123 1049.743 1205.625 1111.731 1277.247 1158.2640000000001 1357.17 1233.356 1414.906 1314.201 1477.064 1401.705 1524.653 1500 1551.8110000000001" fill="#343434"></path></g><defs><mask id="SvgjsMask1042"><rect width="1500" height="1000" fill="#ffffff"></rect></mask></defs></svg>