<svg xmlns="http://www.w3.org/2000/svg" version="1.1" xmlns:xlink="http://www.w3.org/1999/xlink" xmlns:svgjs="http://svgjs.com/svgjs" width="1600" height="900" preserveAspectRatio="none" viewBox="0 0 1600 900"><g mask="url(&quot;#SvgjsMask2606&quot;)" fill="none"><rect width="1600" height="900" x="0" y="0" fill="url(#SvgjsRadialGradient2607)"></rect><path d="M1600 0L1357.27 0L1600 321.59z" fill="rgba(255, 255, 255, .1)"></path><path d="M1357.27 0L1600 321.59L1600 561.66L703.78 0z" fill="rgba(255, 255, 255, .075)"></path><path d="M703.78 0L1600 561.66L1600 565.86L683.0699999999999 0z" fill="rgba(255, 255, 255, .05)"></path><path d="M683.0699999999999 0L1600 565.86L1600 759.9L530.4 0z" fill="rgba(255, 255, 255, .025)"></path><path d="M0 900L231.15 900L0 807.1z" fill="rgba(0, 0, 0, .1)"></path><path d="M0 807.1L231.15 900L732.61 900L0 497.72z" fill="rgba(0, 0, 0, .075)"></path><path d="M0 497.72L732.61 900L1206.8600000000001 900L0 197.61z" fill="rgba(0, 0, 0, .05)"></path><path d="M0 197.61L1206.8600000000001 900L1261.7 900L0 188.78z" fill="rgba(0, 0, 0, .025)"></path></g><defs><mask id="SvgjsMask2606"><rect width="1600" height="900" fill="#ffffff"></rect></mask><radialGradient cx="50%" cy="50%" r="917.88" gradientUnits="userSpaceOnUse" id="SvgjsRadialGradient2607"><stop stop-color="rgba(43, 43, 43, 1)" offset="0.41"></stop><stop stop-color="rgba(28, 28, 28, 1)" offset="0.76"></stop></radialGradient></defs></svg>