<svg xmlns="http://www.w3.org/2000/svg" version="1.1" class="w-full h-full absolute z-0" xmlns:xlink="http://www.w3.org/1999/xlink" xmlns:svgjs="http://svgjs.com/svgjs" width="1440" height="560" preserveAspectRatio="none" viewBox="0 0 1440 560"><g mask="url(&quot;#SvgjsMask1042&quot;)" fill="none"><rect width="1440" height="560" x="0" y="0" fill="rgba(238, 225, 179, 1)"></rect><path d="M519.864,91.622C535.761,92.405,550.57,83.874,559.028,70.391C568.078,55.964,571.703,37.514,562.984,22.884C554.423,8.52,536.52,3.198,519.864,4.679C505.555,5.952,494.993,16.843,488.256,29.53C482.001,41.309,480.809,54.949,486.859,66.835C493.549,79.977,505.135,90.896,519.864,91.622" fill="rgba(169, 63, 85, 0.8)" class="triangle-float1"></path><path d="M92.807,470.269C124.093,470.107,157.754,466.433,175.132,440.417C194.208,411.859,193.658,374.311,176.949,344.307C159.781,313.479,128.078,291.552,92.807,292.586C59.004,293.577,33.405,319.543,16.798,349.003C0.551,377.824,-8.583,413.246,8.988,441.279C25.816,468.127,61.121,470.433,92.807,470.269" fill="rgba(169, 63, 85, 0.8)" class="triangle-float2"></path><path d="M1389.469,432.676C1406.023,432.335,1422.939,428.476,1432.211,414.758C1442.64,399.328,1445.722,379.105,1436.684,362.821C1427.416,346.123,1408.564,337.399,1389.469,337.753C1370.988,338.096,1354.494,348.545,1345.193,364.518C1335.828,380.601,1333.425,400.977,1343.564,416.584C1353.031,431.158,1372.094,433.034,1389.469,432.676" fill="rgba(169, 63, 85, 0.8)" class="triangle-float3"></path><path d="M1179.971,627.407C1221.21,627.103,1266.669,623.517,1288.707,588.659C1311.88,552.005,1302.388,505.274,1281.053,467.52C1259.313,429.05,1224.142,395.036,1179.971,396.245C1137.245,397.414,1109.339,435.747,1088.037,472.802C1066.83,509.693,1046.675,553.708,1068.424,590.282C1089.891,626.383,1137.971,627.716,1179.971,627.407" fill="rgba(169, 63, 85, 0.8)" class="triangle-float3"></path><path d="M547.63,168.5C575.996,168.853,604.856,157.212,618.252,132.206C631.084,108.253,621.76,79.994,607.402,56.923C594.012,35.406,572.949,19.817,547.63,18.723C520.247,17.54,492.381,27.892,478.189,51.341C463.545,75.537,465.567,106.155,479.988,130.485C494.122,154.332,519.911,168.155,547.63,168.5" fill="rgba(169, 63, 85, 0.8)" class="triangle-float2"></path><path d="M1461.53,612.814C1507.977,614.015,1557.946,604.255,1582.366,564.727C1607.777,523.596,1601.466,469.886,1574.708,429.619C1550.496,393.183,1505.272,383.516,1461.53,382.881C1416.28,382.224,1366.59,387.929,1342.517,426.25C1317.284,466.417,1325.54,518.756,1351.051,558.747C1374.684,595.794,1417.602,611.678,1461.53,612.814" fill="rgba(169, 63, 85, 0.8)" class="triangle-float3"></path><path d="M1162.231,394.99C1202.491,393.649,1237.73,370.213,1257.923,335.358C1278.173,300.404,1281.42,257.922,1262.237,222.371C1242.061,184.98,1204.718,158.038,1162.231,158.017C1119.711,157.996,1083.477,185.544,1062.051,222.271C1040.435,259.323,1033.302,305.015,1054.824,342.121C1076.283,379.118,1119.485,396.414,1162.231,394.99" fill="rgba(169, 63, 85, 0.8)" class="triangle-float1"></path></g><defs><mask id="SvgjsMask1042"><rect width="1440" height="560" fill="#ffffff"></rect></mask><style>
            @keyframes float1 {
                0%{transform: translate(0, 0)}
                50%{transform: translate(-10px, 0)}
                100%{transform: translate(0, 0)}
            }

            .triangle-float1 {
                animation: float1 5s infinite;
            }

            @keyframes float2 {
                0%{transform: translate(0, 0)}
                50%{transform: translate(-5px, -5px)}
                100%{transform: translate(0, 0)}
            }

            .triangle-float2 {
                animation: float2 4s infinite;
            }

            @keyframes float3 {
                0%{transform: translate(0, 0)}
                50%{transform: translate(0, -10px)}
                100%{transform: translate(0, 0)}
            }

            .triangle-float3 {
                animation: float3 6s infinite;
            }
        </style></defs></svg>