<svg xmlns="http://www.w3.org/2000/svg" version="1.1" class="w-full h-full absolute z-0" xmlns:xlink="http://www.w3.org/1999/xlink" xmlns:svgjs="http://svgjs.com/svgjs" width="1440" height="560" preserveAspectRatio="none" viewBox="0 0 1440 560"><g mask="url(&quot;#SvgjsMask1037&quot;)" fill="none"><rect width="1440" height="560" x="0" y="0" fill="rgba(164, 166, 176, 1)"></rect><path d="M1301.591,300.798C1335.15,302.866,1369.204,290.605,1387.518,262.407C1407.474,231.681,1412.701,190.915,1393.032,160.004C1374.411,130.739,1336.278,127.228,1301.591,127.367C1267.238,127.505,1228.03,130.666,1211.411,160.732C1195.09,190.259,1213.973,224.472,1232.237,252.839C1248.545,278.168,1271.523,298.945,1301.591,300.798" fill="rgba(161, 74, 118, 0.5)" class="triangle-float3"></path><path d="M86.788,67.518C111.421,68.643,138.25,64.341,151.516,43.554C165.586,21.507,162.091,-7.094,148.767,-29.6C135.705,-51.662,112.426,-65.59,86.788,-65.778C60.818,-65.968,35.413,-53.448,23.217,-30.519C11.625,-8.724,18.12,17.362,31.551,38.075C43.718,56.839,64.448,66.498,86.788,67.518" fill="rgba(161, 74, 118, 0.5)" class="triangle-float2"></path><path d="M585.963,487.463C613.394,487.7,641.421,480.299,656.651,457.483C673.595,432.099,679.043,398.149,662.849,372.28C647.356,347.531,615.098,342.624,585.963,344.564C560.553,346.256,538.301,359.758,524.975,381.459C510.915,404.355,503.961,432.989,517.36,456.278C530.786,479.614,559.041,487.23,585.963,487.463" fill="rgba(161, 74, 118, 0.5)" class="triangle-float2"></path><path d="M1422.731,218.887C1457.601,218.854,1489.464,202.284,1509.136,173.493C1532.099,139.885,1548.517,97.906,1530.245,61.534C1510.496,22.222,1466.533,-2.609,1422.731,1.498C1383.783,5.15,1362.854,43.94,1345.261,78.88C1329.961,109.265,1319.575,143.888,1336.046,173.655C1352.958,204.22,1387.799,218.92,1422.731,218.887" fill="rgba(161, 74, 118, 0.5)" class="triangle-float3"></path><path d="M1074.476,263.614C1132.54,262.89,1192.555,248.994,1224.169,200.285C1258.453,147.462,1260.886,78.947,1229.92,24.114C1198.461,-31.592,1138.266,-69.642,1074.476,-64.782C1016.738,-60.383,984.377,-5.021,955.276,45.04C925.95,95.489,890.234,152.872,918.172,204.102C946.781,256.561,1014.728,264.359,1074.476,263.614" fill="rgba(161, 74, 118, 0.5)" class="triangle-float2"></path><path d="M1314.9,598.543C1359.841,598.645,1392.446,560.726,1414.308,521.461C1435.439,483.507,1445.383,438.851,1425.241,400.363C1403.696,359.193,1361.366,331.809,1314.9,331.506C1267.936,331.199,1223.719,357.246,1202.037,398.906C1181.761,437.864,1194.658,482.779,1216.272,521.011C1238.33,560.028,1270.08,598.441,1314.9,598.543" fill="rgba(161, 74, 118, 0.5)" class="triangle-float2"></path><path d="M714.944,720.841C758.914,717.648,800.691,702.533,825.548,666.123C854.328,623.968,874.919,568.831,848.565,525.119C822.703,482.223,765.032,482.309,714.944,482.671C665.764,483.027,612.985,486.845,584.628,527.028C552.095,573.129,541.033,637.672,572.516,684.496C601.818,728.076,662.567,724.644,714.944,720.841" fill="rgba(161, 74, 118, 0.5)" class="triangle-float2"></path></g><defs><mask id="SvgjsMask1037"><rect width="1440" height="560" fill="#ffffff"></rect></mask><style>
            @keyframes float1 {
                0%{transform: translate(0, 0)}
                50%{transform: translate(-10px, 0)}
                100%{transform: translate(0, 0)}
            }

            .triangle-float1 {
                animation: float1 5s infinite;
            }

            @keyframes float2 {
                0%{transform: translate(0, 0)}
                50%{transform: translate(-5px, -5px)}
                100%{transform: translate(0, 0)}
            }

            .triangle-float2 {
                animation: float2 4s infinite;
            }

            @keyframes float3 {
                0%{transform: translate(0, 0)}
                50%{transform: translate(0, -10px)}
                100%{transform: translate(0, 0)}
            }

            .triangle-float3 {
                animation: float3 6s infinite;
            }
        </style></defs></svg>