<svg xmlns="http://www.w3.org/2000/svg" version="1.1" class="w-full h-full absolute z-0" xmlns:xlink="http://www.w3.org/1999/xlink" xmlns:svgjs="http://svgjs.com/svgjs" width="1440" height="560" preserveAspectRatio="none" viewBox="0 0 1440 560"><g mask="url(&quot;#SvgjsMask1013&quot;)" fill="none"><rect width="1440" height="560" x="0" y="0" fill="rgba(164, 166, 176, 1)"></rect><path d="M92.61,234.199C140.91,233.445,183.187,201.347,204.204,157.853C222.879,119.205,209.925,75.213,186.953,38.955C165.854,5.652,131.969,-16.014,92.61,-18.283C48.453,-20.829,1.584,-10.121,-22.663,26.871C-49.022,67.086,-48.554,119.41,-25.188,161.435C-1.15,204.669,43.149,234.971,92.61,234.199" fill="rgba(21, 122, 110, 0.4)" class="triangle-float3"></path><path d="M186.384,463.159C242.106,459.592,274.702,406.683,301.959,357.952C328.305,310.848,354.81,256.301,328.419,209.222C301.654,161.475,241.12,151.371,186.384,151.776C132.548,152.174,77.223,166.117,47.944,211.296C16.194,260.288,13.861,323.435,41.982,374.596C71.134,427.632,125.988,467.026,186.384,463.159" fill="rgba(21, 122, 110, 0.4)" class="triangle-float3"></path><path d="M1145.355,472.801C1181.042,471.547,1206.933,441.468,1222.612,409.385C1236.281,381.414,1234.149,349.461,1218.893,322.323C1203.288,294.565,1177.155,273.631,1145.355,271.959C1110.501,270.127,1075.247,284.014,1057.085,313.818C1038.242,344.739,1040.508,383.508,1058.085,415.166C1076.222,447.833,1108.014,474.113,1145.355,472.801" fill="rgba(21, 122, 110, 0.4)" class="triangle-float3"></path><path d="M894.776,511.58C923.465,512.599,954.053,503.164,967.745,477.933C981.004,453.5,970.07,424.368,954.661,401.23C941.133,380.917,919.176,367.854,894.776,368.366C871.229,368.86,851.451,383.607,839.095,403.657C825.983,424.933,818.804,450.841,830.263,473.051C842.572,496.909,867.947,510.627,894.776,511.58" fill="rgba(21, 122, 110, 0.4)" class="triangle-float3"></path><path d="M1187.306,527.394C1244.789,526.532,1308.304,516.647,1336.206,466.383C1363.593,417.047,1334.825,360.394,1307.379,311.091C1278.823,259.795,1245.984,200.799,1187.306,198.902C1126.655,196.941,1083.297,250.295,1052.989,302.868C1022.726,355.363,999.354,418.97,1030.461,470.97C1061.033,522.075,1127.762,528.287,1187.306,527.394" fill="rgba(21, 122, 110, 0.4)" class="triangle-float1"></path><path d="M761.08,524.414C792.139,522.488,812.367,495.587,828.033,468.699C843.849,441.553,859.24,409.645,843.931,382.21C828.373,354.33,792.966,347.094,761.08,348.717C732.266,350.183,707.246,365.686,691.651,389.959C674.445,416.738,663.408,449.721,678.012,478.003C693.609,508.209,727.15,526.518,761.08,524.414" fill="rgba(21, 122, 110, 0.4)" class="triangle-float3"></path><path d="M1104.167,412.727C1128.167,413.279,1151.214,401.748,1163.448,381.093C1175.911,360.052,1175.852,333.717,1163.447,312.642C1151.216,291.864,1128.275,280.777,1104.167,280.385C1079.291,279.981,1053.579,288.935,1041.455,310.66C1029.568,331.961,1036.661,357.686,1049.431,378.469C1061.508,398.125,1081.103,412.196,1104.167,412.727" fill="rgba(21, 122, 110, 0.4)" class="triangle-float2"></path><path d="M1312.769,670.666C1363.777,668.783,1407.055,636.666,1432.192,592.242C1456.916,548.548,1460.835,495.765,1436.617,451.789C1411.538,406.25,1364.753,374.728,1312.769,375.39C1261.795,376.04,1220.495,411.162,1194.27,454.877C1167.107,500.156,1151.614,555.379,1177.03,601.662C1203.216,649.347,1258.404,672.673,1312.769,670.666" fill="rgba(21, 122, 110, 0.4)" class="triangle-float2"></path><path d="M160.97,267.853C199.177,267.731,223.668,232.101,242.849,199.058C262.14,165.825,279.449,127.669,262.308,93.278C243.66,55.865,202.765,33.948,160.97,34.784C120.502,35.593,84.585,61.025,66.415,97.194C49.886,130.097,60.338,167.374,78.183,199.582C96.763,233.116,122.633,267.975,160.97,267.853" fill="rgba(21, 122, 110, 0.4)" class="triangle-float2"></path></g><defs><mask id="SvgjsMask1013"><rect width="1440" height="560" fill="#ffffff"></rect></mask><style>
            @keyframes float1 {
                0%{transform: translate(0, 0)}
                50%{transform: translate(-10px, 0)}
                100%{transform: translate(0, 0)}
            }

            .triangle-float1 {
                animation: float1 5s infinite;
            }

            @keyframes float2 {
                0%{transform: translate(0, 0)}
                50%{transform: translate(-5px, -5px)}
                100%{transform: translate(0, 0)}
            }

            .triangle-float2 {
                animation: float2 4s infinite;
            }

            @keyframes float3 {
                0%{transform: translate(0, 0)}
                50%{transform: translate(0, -10px)}
                100%{transform: translate(0, 0)}
            }

            .triangle-float3 {
                animation: float3 6s infinite;
            }
        </style></defs></svg>