<svg xmlns="http://www.w3.org/2000/svg" version="1.1" class="w-full h-full absolute z-0"
    xmlns:xlink="http://www.w3.org/1999/xlink"
    xmlns:svgjs="http://svgjs.com/svgjs" width="1440" height="560" preserveAspectRatio="none" viewBox="0 0 1440 560">
    <g mask="url(&quot;#SvgjsMask1076&quot;)" fill="none">
      <rect width="1440" height="560" x="0" y="0" fill="rgba(43, 43, 43, 1)"></rect>
        <!-- <path d="M1343.721,572.457C1375.485,571.421,1399.66,547.427,1415.455,519.849C1431.133,492.475,1438.879,459.893,1424.176,431.983C1408.55,402.322,1377.244,384.019,1343.721,383.686C1309.619,383.347,1277.321,400.718,1260.451,430.358C1243.752,459.699,1246.333,495.679,1263.402,524.806C1280.271,553.593,1310.374,573.544,1343.721,572.457" fill="rgba(21, 122, 110, 0.6)" class="triangle-float3"></path>
        <path d="M1221.432,375.079C1262.978,374.351,1302.319,350.986,1320.035,313.4C1335.814,279.923,1316.296,244.432,1298.235,212.129C1279.508,178.636,1259.663,140.346,1221.432,137.043C1178.839,133.363,1139.112,159.578,1117.597,196.522C1095.942,233.708,1095.021,279.766,1116.653,316.965C1138.172,353.969,1178.633,375.829,1221.432,375.079" fill="rgba(21, 122, 110, 0.6)" class="triangle-float3"></path>
        <path d="M1041.95,426.156C1065.065,425.237,1084.68,410.318,1095.621,389.936C1105.96,370.676,1103.732,348.454,1094.229,328.767C1082.992,305.488,1067.772,279.937,1041.95,278.748C1014.845,277.5,993.36,299.584,980.613,323.537C968.698,345.925,967.326,372.753,980.337,394.522C993.032,415.761,1017.226,427.139,1041.95,426.156" fill="rgba(21, 122, 110, 0.6)" class="triangle-float3"></path>
        <path d="M188.605,405.337C216.549,405.998,244.017,393.088,257.761,368.749C271.306,344.762,265.925,315.98,252.714,291.808C238.827,266.398,217.509,243.97,188.605,242.215C156.827,240.286,124.034,254.82,109.428,283.109C95.671,309.753,108.593,340.437,124.896,365.604C139.48,388.118,161.788,404.702,188.605,405.337" fill="rgba(21, 122, 110, 0.6)" class="triangle-float2"></path>
        <path d="M559.557,536.445C585.368,538.139,611.035,525.163,623.513,502.504C635.625,480.509,630.873,453.322,616.773,432.546C604.303,414.172,581.756,407.698,559.557,408.263C538.498,408.799,517.841,417.17,507.176,435.337C496.388,453.714,498.855,476.044,508.658,494.966C519.449,515.795,536.149,534.909,559.557,536.445" fill="rgba(21, 122, 110, 0.6)" class="triangle-float2"></path>
        <path d="M1319.404,350.245C1358.807,350.377,1393.806,326.316,1412.999,291.903C1431.692,258.387,1432.271,216.984,1411.848,184.494C1392.583,153.845,1355.604,143.201,1319.404,143.004C1282.776,142.805,1244.595,152.405,1225.206,183.481C1204.817,216.159,1207.949,257.741,1226.892,291.278C1246.169,325.405,1280.209,350.113,1319.404,350.245" fill="rgba(21, 122, 110, 0.6)" class="triangle-float2"></path>
        <path d="M643.295,426.542C683.839,427.54,729.501,422.603,749.91,387.556C770.402,352.368,751.955,310.286,731.5,275.077C711.175,240.092,683.691,206.333,643.295,204.042C599.418,201.554,557.009,225.45,535.874,263.982C515.441,301.233,521.972,347.077,545.396,382.524C566.538,414.519,604.958,425.599,643.295,426.542" fill="rgba(21, 122, 110, 0.6)" class="triangle-float1"></path> 
        <path class="triangle-float1" style="fill:rgba(21, 122, 110, 0.6); stroke:#157A6E; stroke-width:2px;" d="M13.799999999999999,15a7.8,9 0 1 0 0,12M28.2,12a9,9 0 1 0 0.3,0zM43.199999999999996,12v18m0.3,-15a7.8,9 0 0 1 12,0v15M76.2,16.5a7.5,4.5 0 1 0 -7.5,4.5a7.5,4.5 0 1 1 -7.5,4.5M90.6,12a9,9 0 1 0 0.3,0zM105.6,0v30M126,25.8a7.5,9 0 1 1 0.6,-7.199999999999999h-13.799999999999999M135.6,30a0.6,0.6 0 1 1 0,0.3M158.4,25.8a7.5,9 0 1 1 0.6,-7.199999999999999h-13.799999999999999M165,12v18m0.3,-15a7.8,9 0 0 1 12,0M183,12v18m0.3,-15a7.8,9 0 0 1 12,0M209.4,12a9,9 0 1 0 0.3,0zM224.4,12v18m0.3,-15a7.8,9 0 0 1 12,0" transform="translate(0,0)"/> 
        <path class="triangle-float1" style="fill:rgba(21, 122, 110, 0.4); stroke:#157A6E; stroke-width:2px;" d="M214.99 29.99L214.99 49.98C210.49 49.98 207.99 49.98 207.49 49.98C203.35 49.98 200 46.62 200 42.48C200 38.34 203.35 34.99 207.49 34.99C211.63 34.99 214.99 38.34 214.99 42.48M220.23 41.98C229.08 41.98 233.99 41.98 234.97 41.98C234.69 37.85 231.12 34.73 226.99 35.01C222.86 35.29 219.74 38.87 220.02 43C220.3 47.13 223.87 50.25 228 49.97C229.72 49.85 231.34 49.15 232.6 47.98M253.46 37.99C250.98 34.68 246.28 34 242.97 36.49C239.66 38.97 238.98 43.67 241.47 46.98C243.95 50.29 248.65 50.96 251.96 48.48C252.53 48.05 253.03 47.55 253.46 46.98M259.21 29.99L259.21 49.98M286.93 34.99C282.44 34.99 279.94 34.99 279.44 34.99C275.3 34.99 271.95 38.34 271.95 42.48C271.95 46.62 275.3 49.98 279.44 49.98C283.58 49.98 286.93 46.62 286.93 42.48M286.93 34.99L286.93 49.98M291.93 34.99L291.93 49.98M292.18 42.48C292.18 38.34 295.54 34.99 299.67 34.99M308.42 41.98C317.26 41.98 322.17 41.98 323.16 41.98C322.88 37.85 319.3 34.73 315.17 35.01C311.04 35.29 307.92 38.87 308.2 43C308.48 47.13 312.06 50.25 316.19 49.97C317.9 49.85 319.53 49.15 320.78 47.98M344.39 34.99L344.39 49.98M344.64 39.98C344.64 37.23 346.88 34.99 349.64 34.99C352.4 34.99 354.63 37.23 354.63 39.98C354.63 40.65 354.63 43.98 354.63 49.98M354.88 39.98C354.88 37.23 357.12 34.99 359.88 34.99C362.64 34.99 364.88 37.23 364.88 39.98C364.88 40.65 364.88 43.98 364.88 49.98M374.12 34.99C369.98 35.06 366.68 38.47 366.75 42.61C366.82 46.75 370.23 50.04 374.37 49.98C378.51 49.91 381.81 46.5 381.74 42.36C381.67 38.32 378.41 35.06 374.37 34.99C374.32 34.99 374.17 34.99 374.12 34.99ZM401.85 29.99L401.85 49.98C397.35 49.98 394.85 49.98 394.35 49.98C390.21 49.98 386.86 46.62 386.86 42.48C386.86 38.34 390.21 34.99 394.35 34.99C398.49 34.99 401.85 38.34 401.85 42.48M406.84 34.99C406.84 40.23 406.84 43.15 406.84 43.73C406.84 47.18 409.64 49.98 413.09 49.98C416.54 49.98 419.34 47.18 419.34 43.73M419.34 34.99L419.34 49.98M425.58 29.99L425.58 49.98M438.57 41.98C447.41 41.98 452.33 41.98 453.31 41.98C453.03 37.85 449.45 34.73 445.33 35.01C441.2 35.29 438.08 38.87 438.36 43C438.64 47.13 442.21 50.25 446.34 49.97C448.06 49.85 449.68 49.15 450.94 47.98M474.54 25L474.54 29.99M477.04 29.99L477.04 25M488.53 34.99L488.53 49.98M488.78 39.98C488.78 37.23 491.02 34.99 493.78 34.99C496.54 34.99 498.78 37.23 498.78 39.98C498.78 40.65 498.78 43.98 498.78 49.98M499.03 39.98C499.03 37.23 501.26 34.99 504.02 34.99C506.78 34.99 509.02 37.23 509.02 39.98C509.02 40.65 509.02 43.98 509.02 49.98M511.02 34.99C511.02 40.23 511.02 43.15 511.02 43.73C511.02 47.18 513.81 49.98 517.26 49.98C520.71 49.98 523.51 47.18 523.51 43.73M523.51 34.99C523.51 43.98 523.51 48.98 523.51 49.98C523.57 53.43 520.82 56.27 517.37 56.33C515.21 56.37 513.19 55.29 512.02 53.47M529.75 37.49L537.25 37.49M560.98 34.99C556.48 34.99 553.98 34.99 553.49 34.99C549.35 34.99 545.99 38.34 545.99 42.48C545.99 46.62 549.35 49.98 553.49 49.98C557.62 49.98 560.98 46.62 560.98 42.48M560.98 34.99L560.98 49.98M565.98 34.99L571.47 49.98L575.97 36.49L580.46 49.98L585.96 34.99M588.71 41.98C597.55 41.98 602.47 41.98 603.45 41.98C603.17 37.85 599.59 34.73 595.46 35.01C591.33 35.29 588.21 38.87 588.49 43C588.77 47.13 592.35 50.25 596.48 49.97C598.19 49.85 599.82 49.15 601.07 47.98M616.44 37.49C615.81 35.64 613.58 34.58 611.46 35.14C609.35 35.69 608.15 37.64 608.78 39.49C609.27 40.92 610.74 41.92 612.44 41.98C614.92 42.03 616.89 43.86 616.83 46.07C616.78 48.28 614.72 50.03 612.23 49.98C610.67 49.94 609.23 49.19 608.44 47.98M632.43 34.99C628.29 35.06 624.99 38.47 625.06 42.61C625.13 46.75 628.54 50.04 632.68 49.98C636.81 49.91 640.11 46.5 640.04 42.36C639.98 38.32 636.72 35.06 632.68 34.99C632.63 34.99 632.48 34.99 632.43 34.99ZM645.17 34.99L645.17 49.98M645.42 39.98C645.42 37.23 647.65 34.99 650.41 34.99C653.17 34.99 655.41 37.23 655.41 39.98C655.41 40.65 655.41 43.98 655.41 49.98M655.66 39.98C655.66 37.23 657.9 34.99 660.65 34.99C663.41 34.99 665.65 37.23 665.65 39.98C665.65 40.65 665.65 43.98 665.65 49.98M667.9 41.98C676.74 41.98 681.66 41.98 682.64 41.98C682.36 37.85 678.78 34.73 674.65 35.01C670.52 35.29 667.4 38.87 667.68 43C667.96 47.13 671.54 50.25 675.67 49.97C677.38 49.85 679.01 49.15 680.27 47.98M687.63 37.49L695.13 37.49M703.87 54.97L703.87 34.99C708.37 34.99 710.87 34.99 711.37 34.99C715.51 34.99 718.86 38.34 718.86 42.48C718.86 46.62 715.51 49.98 711.37 49.98C707.23 49.98 703.87 46.62 703.87 42.48M731.1 34.99C726.96 35.06 723.66 38.47 723.73 42.61C723.8 46.75 727.21 50.04 731.35 49.98C735.49 49.91 738.79 46.5 738.72 42.36C738.65 38.32 735.39 35.06 731.35 34.99C731.3 34.99 731.15 34.99 731.1 34.99ZM743.84 34.99L743.84 49.98M744.09 42.48C744.09 38.34 747.45 34.99 751.59 34.99M762.58 29.99C762.58 38.99 762.58 43.98 762.58 44.98C762.58 47.74 764.82 49.98 767.58 49.98M760.08 34.99L767.58 34.99M776.32 34.99L783.81 34.99M783.81 29.99C782.61 29.99 781.95 29.99 781.81 29.99C780.16 29.99 778.82 31.33 778.82 32.99C778.82 34.12 778.82 39.79 778.82 49.98M799.8 34.99C795.66 35.06 792.36 38.47 792.43 42.61C792.5 46.75 795.91 50.04 800.05 49.98C804.19 49.91 807.49 46.5 807.42 42.36C807.35 38.32 804.09 35.06 800.05 34.99C800 34.99 799.85 34.99 799.8 34.99ZM812.54 29.99L812.54 49.98M825.28 29.99C825.35 29.73 825.62 29.56 825.89 29.63C826.16 29.7 826.32 29.97 826.25 30.24C826.18 30.51 825.91 30.67 825.64 30.6C825.46 30.56 825.33 30.42 825.28 30.24C825.28 30.19 825.28 30.04 825.28 29.99ZM825.78 34.74L825.78 49.73M845.27 34.99C841.13 35.06 837.83 38.47 837.9 42.61C837.97 46.75 841.38 50.04 845.52 49.98C849.66 49.91 852.95 46.5 852.89 42.36C852.82 38.32 849.56 35.06 845.52 34.99C845.47 34.99 845.32 34.99 845.27 34.99ZM858.01 25L858.01 29.99M860.51 29.99L860.51 25" id="d4zebKx6LW"></path>
        <path class="triangle-float2" style="fill:rgba(21, 122, 110, 0.4); stroke:#157A6E; stroke-width:2px;" d="M42.93 423.81C39.5 424.36 37.51 427.6 38.5 431.05C39.49 434.51 43.07 436.86 46.5 436.32C48.49 436 50.08 434.76 50.79 432.96C51.36 431.38 51.57 429.89 51.4 428.7M54.19 427.08L52.79 429.5L33.77 418.52L32.37 420.94M47.62 411.3C46.13 414.14 47.6 417.87 50.9 419.65C54.2 421.43 58.08 420.57 59.57 417.74C61.05 414.91 59.58 411.17 56.28 409.39C53.14 407.7 49.45 408.39 47.82 410.96C47.78 411.03 47.66 411.23 47.62 411.3ZM61.46 395.32C59.92 394.15 59.06 393.51 58.89 393.38C57.93 394.16 57 395.22 56.2 396.43C54.46 399.27 55.6 403.25 58.73 405.31C61.87 407.38 65.82 406.75 67.56 403.91C68.36 402.2 68.78 400.48 68.75 399.07M53.33 384.64L54.73 382.22L73.75 393.19M72.55 395.27L74.95 391.12M78.94 384.2L77.74 386.28L68.22 388.39L67.63 389.43M68.22 388.39L65.49 380.36L64.49 382.09L64.49 382.09L66.29 378.97M75.26 377.01C78.45 371.24 80.22 368.04 80.57 367.4C77.37 365.38 73.62 365.93 72.19 368.64C70.76 371.34 72.2 375.16 75.4 377.18C78.6 379.2 82.35 378.65 83.78 375.95C83.88 375.77 83.96 375.58 84.03 375.39C84.99 373.82 85.43 372.04 85.22 370.54M77.27 359.96L78.56 357.71L90.32 364.5M89.12 366.57L91.52 362.42M82.02 359.7C80.29 358.78 80.22 355.52 81.86 352C82.02 352.1 82.82 352.56 84.28 353.4M99.09 330.14C97.55 328.98 96.69 328.33 96.52 328.2C95.56 328.98 94.63 330.04 93.83 331.26C92.1 334.09 93.23 338.07 96.36 340.13C99.5 342.2 103.45 341.57 105.19 338.74C105.99 337.03 106.41 335.31 106.38 333.89M101.02 318.81C99.54 321.64 101.01 325.38 104.31 327.16C107.61 328.93 111.48 328.08 112.97 325.25C114.46 322.41 112.99 318.68 109.69 316.9C106.55 315.21 102.85 315.89 101.22 318.46C101.18 318.53 101.06 318.74 101.02 318.81ZM106.41 309.47L107.71 307.23L119.47 314.01M118.27 316.09L120.66 311.94M112.9 310.22C110.4 308.54 109.29 305.24 110.43 302.83C111.56 300.43 114.5 299.84 117 301.52C117.48 301.8 119.9 303.2 124.26 305.71L125.55 303.47M114.13 288.11C121.81 292.55 126.07 295.01 126.93 295.5C128.26 296.27 129.88 295.97 130.54 294.82C130.54 294.82 130.54 294.82 130.54 294.82C130.62 294.7 130.98 294.06 131.64 292.92M116.28 292.58L119.97 286.18M126.34 282.94C124.68 281.98 123.76 281.45 123.57 281.35C123.64 278.55 125.68 275.68 128.14 274.93C129.12 274.63 130.07 274.72 130.83 275.16C131.38 275.48 134.15 277.08 139.13 279.95L140.43 277.71M136.54 278.37C137.62 281.13 136.92 284.83 134.99 286.65C133.05 288.46 130.61 287.68 129.53 284.92C130.04 282.67 131.69 279.33 133.6 276.67M127.71 262.85C127.95 262.98 128.25 262.88 128.38 262.64C128.51 262.39 128.41 262.09 128.17 261.96C127.94 261.84 127.65 261.92 127.52 262.14C127.37 262.42 127.46 262.72 127.71 262.85ZM131.07 266.77L132.36 264.52L144.12 271.31M142.92 273.38L145.22 269.41M135.86 258.47L137.15 256.22L148.91 263.01M147.71 265.09L150.11 260.94M142.34 259.22C139.84 257.54 138.74 254.23 139.87 251.83C141 249.43 143.94 248.84 146.44 250.52C146.93 250.8 149.35 252.2 153.7 254.71L155 252.47M151.52 244.92C154.71 239.16 156.48 235.95 156.83 235.31C153.63 233.3 149.88 233.85 148.45 236.55C147.02 239.25 148.46 243.08 151.66 245.1C154.86 247.12 158.61 246.56 160.04 243.86C160.14 243.68 160.22 243.49 160.29 243.3C161.25 241.74 161.69 239.95 161.48 238.45M153.52 227.87L154.82 225.62L166.58 232.41M165.38 234.48L167.78 230.34M158.28 227.62C156.55 226.69 156.48 223.43 158.12 219.92C158.28 220.01 159.08 220.48 160.54 221.31M159.64 200.51L161.04 198.09L180.05 209.07M178.86 211.15L181.25 207M178.45 191.09C177.18 190.08 176.47 189.52 176.33 189.4C174.37 190.75 173.15 193.51 173.62 195.56C174.09 197.61 176.07 198.19 178.03 196.84C178.03 196.84 178.03 196.84 178.03 196.84C178.45 196.57 181.8 194.45 182.22 194.18C184.23 193.15 186.01 194.13 186.19 196.36C186.36 198.59 184.87 201.24 182.85 202.27C182.68 202.14 181.82 201.49 180.28 200.33M190.47 177.05L194.76 169.62M195.51 163.13C193.85 162.17 192.93 161.64 192.75 161.54C192.81 158.74 194.86 155.87 197.31 155.12C198.29 154.82 199.24 154.9 200 155.35C200.56 155.67 203.32 157.27 208.3 160.14L209.6 157.9M205.71 158.56C206.79 161.32 206.1 165.02 204.16 166.83C202.22 168.64 199.78 167.87 198.7 165.11C199.21 162.86 200.86 159.52 202.77 156.86" id="a2YffWKZM"></path>
        <path class="triangle-float3" style="fill:none; stroke:#157A6E; stroke-width:2px;" d="M643.08 152.82L643.17 155.41C638.14 155.58 635.35 155.68 634.79 155.7C631.64 155.82 629.45 158.44 629.9 161.54C630.17 163.44 631.4 165.17 633.16 166.14M630.05 168.45L629.97 166.25L643.53 165.78L643.43 162.99M640.85 180.45C642.46 180.63 643.36 180.74 643.53 180.76C644.49 178.57 644.06 175.59 642.57 174.1C641.08 172.61 639.11 173.17 638.15 175.35C638.15 175.35 638.15 175.35 638.15 175.35C637.94 175.8 636.23 179.37 636.01 179.82C634.85 181.76 632.83 181.88 631.5 180.08C630.17 178.28 630.03 175.24 631.19 173.3C631.19 173.3 631.19 173.3 631.19 173.3C631.41 173.32 632.48 173.41 634.4 173.59M637.45 185.96C637.8 192.54 637.99 196.19 638.03 196.92C641.81 196.94 644.7 194.48 644.48 191.43C644.26 188.39 641.02 185.9 637.23 185.89C633.45 185.87 630.56 188.33 630.78 191.38C630.8 191.58 630.83 191.78 630.87 191.98C630.88 193.82 631.46 195.56 632.43 196.72M651.48 210.43C651.18 205.26 646.48 201.31 640.98 201.62C635.48 201.92 631.26 206.36 631.55 211.53C631.85 216.7 636.55 220.65 642.06 220.34C647.39 220.05 651.56 215.86 651.49 210.83C651.49 210.75 651.48 210.51 651.48 210.43ZM632.03 213.91C629.14 216.12 627.26 220.23 627.02 224.87M645.6 225.02L645.69 227.61C640.66 227.78 637.87 227.88 637.31 227.9C634.16 228.02 631.97 230.64 632.42 233.74C632.69 235.64 633.92 237.37 635.68 238.34M632.57 240.65L632.49 238.45L646.05 237.98L645.95 235.19M639.51 245.2C639.86 251.77 640.06 255.43 640.1 256.16C643.88 256.17 646.77 253.72 646.55 250.67C646.33 247.62 643.09 245.14 639.3 245.12C635.52 245.11 632.63 247.57 632.85 250.61C632.87 250.81 632.89 251.02 632.94 251.22C632.95 253.05 633.53 254.8 634.5 255.96M646.85 260.72L646.94 263.31L633.37 263.78M633.29 261.39L633.46 266.18M642.95 263.45C644.9 263.32 646.69 266.05 647.17 269.89C646.98 269.9 646.05 269.93 644.37 269.99M647.33 274.68L647.47 278.67L647.4 276.47L647.4 276.47L633.24 282.76M627.86 277.35C628.62 279.95 630.64 281.99 633.24 282.76C634.21 283.11 639.06 284.87 647.8 288.04M647.72 285.85L647.88 290.23M655.76 298.55C647.96 293.76 638.06 294.11 630.63 299.42M636.92 319.57C633.84 315.12 634.73 308.88 638.9 305.63C639.37 305.26 639.87 304.94 640.39 304.67C643.29 303.47 646.59 303.36 649.57 304.35C653.44 305.7 655.87 311.12 654.99 316.46C654.87 317.19 654.69 317.89 654.46 318.56C654.19 318.57 652.86 318.62 650.47 318.7M655.76 332.89C655.46 327.72 650.76 323.77 645.25 324.08C639.75 324.38 635.53 328.82 635.83 333.99C636.13 339.16 640.83 343.11 646.33 342.8C651.67 342.51 655.83 338.32 655.77 333.29C655.77 333.21 655.76 332.97 655.76 332.89ZM656.58 356.43C656.28 351.25 651.58 347.31 646.08 347.61C640.57 347.91 636.35 352.35 636.65 357.52C636.95 362.69 641.65 366.64 647.15 366.34C652.49 366.05 656.65 361.85 656.59 356.83C656.59 356.75 656.58 356.51 656.58 356.43ZM657.09 371.19L657.29 376.77M657.18 373.58L637.23 374.28M637.14 371.48L637.57 383.85L642.35 383.68M633.75 388.77L634.26 403.53M658.68 416.66C658.38 411.49 653.68 407.54 648.18 407.84C642.68 408.14 638.46 412.58 638.76 417.75C639.05 422.93 643.76 426.87 649.26 426.57C654.6 426.28 658.76 422.08 658.7 417.06C658.69 416.98 658.68 416.74 658.68 416.66ZM639.23 420.13C636.34 422.35 634.46 426.46 634.22 431.09M659.18 431.02L659.37 436.4M659.28 433.71C651.14 434 646.62 434.15 645.72 434.19C642.19 434.31 639.44 437.43 639.57 441.15C639.7 444.87 642.66 447.79 646.19 447.67C647.09 447.64 651.61 447.48 659.75 447.19M659.65 444.5L659.84 449.69M660 454.35L660.44 466.92L656.45 467.06M644.9 468.06L640.51 468.21L640.05 455.05M640.15 457.84L660.1 457.15M650.52 457.48L650.77 464.66M648.18 464.75L653.37 464.57M660.63 472.3C660.79 477.09 660.89 479.75 660.9 480.28C661.01 483.26 658.68 485.75 655.71 485.86C652.73 485.96 650.24 483.63 650.13 480.66C650.12 480.3 650.06 478.5 649.95 475.27M650.13 480.46L641.14 486.16L641.22 488.36M640.86 478.19L640.68 473M640.77 475.59L660.72 474.9M661.33 492.45L661.51 497.63M661.41 494.84L650.47 501.81L641.7 502.12M641.6 499.33L641.79 504.91M650.47 501.81L661.89 508.4M661.79 505.61L661.97 510.8M663.33 515.54C655.89 520.86 645.99 521.2 638.2 516.42" id="ayhkddFcw"></path>
        <path class="triangle-float2" style="fill:rgba(21, 122, 110, 0.4); stroke:#157A6E; stroke-width:2px;" d="M643.08 900L643.17 902.59C638.14 902.76 635.35 902.86 634.79 902.88C631.64 903 629.45 905.62 629.9 908.72C630.17 910.62 631.4 912.35 633.16 913.32M630.05 915.63L629.97 913.43L643.53 912.96L643.43 910.17M640.85 927.63C642.46 927.81 643.36 927.92 643.53 927.94C644.49 925.75 644.06 922.77 642.57 921.28C641.08 919.79 639.11 920.35 638.15 922.53C638.15 922.53 638.15 922.53 638.15 922.53C637.94 922.98 636.23 926.55 636.01 927C634.85 928.94 632.83 929.06 631.5 927.26C630.17 925.46 630.03 922.42 631.19 920.48C631.19 920.48 631.19 920.48 631.19 920.48C631.41 920.5 632.48 920.59 634.4 920.77M637.45 933.14C637.8 939.72 637.99 943.37 638.03 944.1C641.81 944.12 644.7 941.66 644.48 938.61C644.26 935.57 641.02 933.08 637.23 933.07C633.45 933.05 630.56 935.51 630.78 938.56C630.8 938.76 630.83 938.96 630.87 939.16C630.88 941 631.46 942.74 632.43 943.9M651.48 957.61C651.18 952.44 646.48 948.49 640.98 948.8C635.48 949.1 631.26 953.54 631.55 958.71C631.85 963.88 636.55 967.83 642.06 967.52C647.39 967.23 651.56 963.04 651.49 958.01C651.49 957.93 651.48 957.69 651.48 957.61ZM632.03 961.09C629.14 963.3 627.26 967.41 627.02 972.05M645.6 972.2L645.69 974.79C640.66 974.96 637.87 975.06 637.31 975.08C634.16 975.2 631.97 977.82 632.42 980.92C632.69 982.82 633.92 984.55 635.68 985.52M632.57 987.83L632.49 985.63L646.05 985.16L645.95 982.37M639.51 992.38C639.86 998.95 640.06 1002.61 640.1 1003.34C643.88 1003.35 646.77 1000.9 646.55 997.85C646.33 994.8 643.09 992.32 639.3 992.3C635.52 992.29 632.63 994.75 632.85 997.79C632.87 997.99 632.89 998.2 632.94 998.4C632.95 1000.23 633.53 1001.98 634.5 1003.14M646.85 1007.9L646.94 1010.49L633.37 1010.96M633.29 1008.57L633.46 1013.36M642.95 1010.63C644.9 1010.5 646.69 1013.23 647.17 1017.07C646.98 1017.08 646.05 1017.11 644.37 1017.17M647.33 1021.86L647.47 1025.85L647.4 1023.65L647.4 1023.65L633.24 1029.94M627.86 1024.53C628.62 1027.13 630.64 1029.17 633.24 1029.94C634.21 1030.29 639.06 1032.05 647.8 1035.22M647.72 1033.03L647.88 1037.41M655.76 1045.73C647.96 1040.94 638.06 1041.29 630.63 1046.6M636.92 1066.75C633.84 1062.3 634.73 1056.06 638.9 1052.81C639.37 1052.44 639.87 1052.12 640.39 1051.85C643.29 1050.65 646.59 1050.54 649.57 1051.53C653.44 1052.88 655.87 1058.3 654.99 1063.64C654.87 1064.37 654.69 1065.07 654.46 1065.74C654.19 1065.75 652.86 1065.8 650.47 1065.88M655.76 1080.07C655.46 1074.9 650.76 1070.95 645.25 1071.26C639.75 1071.56 635.53 1076 635.83 1081.17C636.13 1086.34 640.83 1090.29 646.33 1089.98C651.67 1089.69 655.83 1085.5 655.77 1080.47C655.77 1080.39 655.76 1080.15 655.76 1080.07ZM656.58 1103.61C656.28 1098.43 651.58 1094.49 646.08 1094.79C640.57 1095.09 636.35 1099.53 636.65 1104.7C636.95 1109.87 641.65 1113.82 647.15 1113.52C652.49 1113.23 656.65 1109.03 656.59 1104.01C656.59 1103.93 656.58 1103.69 656.58 1103.61ZM657.09 1118.37L657.29 1123.95M657.18 1120.76L637.23 1121.46M637.14 1118.66L637.57 1131.03L642.35 1130.86M633.75 1135.95L634.26 1150.71M658.68 1163.84C658.38 1158.67 653.68 1154.72 648.18 1155.02C642.68 1155.32 638.46 1159.76 638.76 1164.93C639.05 1170.11 643.76 1174.05 649.26 1173.75C654.6 1173.46 658.76 1169.26 658.7 1164.24C658.69 1164.16 658.68 1163.92 658.68 1163.84ZM639.23 1167.31C636.34 1169.53 634.46 1173.64 634.22 1178.27M659.18 1178.2L659.37 1183.58M659.28 1180.89C651.14 1181.18 646.62 1181.33 645.72 1181.37C642.19 1181.49 639.44 1184.61 639.57 1188.33C639.7 1192.05 642.66 1194.97 646.19 1194.85C647.09 1194.82 651.61 1194.66 659.75 1194.37M659.65 1191.68L659.84 1196.87M660 1201.53L660.44 1214.1L656.45 1214.24M644.9 1215.24L640.51 1215.39L640.05 1202.23M640.15 1205.02L660.1 1204.33M650.52 1204.66L650.77 1211.84M648.18 1211.93L653.37 1211.75M660.63 1219.48C660.79 1224.27 660.89 1226.93 660.9 1227.46C661.01 1230.44 658.68 1232.93 655.71 1233.04C652.73 1233.14 650.24 1230.81 650.13 1227.84C650.12 1227.48 650.06 1225.68 649.95 1222.45M650.13 1227.64L641.14 1233.34L641.22 1235.54M640.86 1225.37L640.68 1220.18M640.77 1222.77L660.72 1222.08M661.33 1239.63L661.51 1244.81M661.41 1242.02L650.47 1248.99L641.7 1249.3M641.6 1246.51L641.79 1252.09M650.47 1248.99L661.89 1255.58M661.79 1252.79L661.97 1257.98M663.33 1262.72C655.89 1268.04 645.99 1268.38 638.2 1263.6" id="aiGRWMF2S"></path>
          <text class="triangle-float1"  stroke-width="1" transform="rotate(2, 726.917, 659)" font-style="normal" font-weight="normal" xml:space="preserve" text-anchor="start"  font-size="16" id="svg_1" y="550" x="117" fill="rgba(21, 122, 110, 0.6)" stroke="#157A6E">@Override     public &lt;U&gt; BuilderProxy&lt;T&gt; with(final BiConsumer&lt;T, U&gt; consumer, final U value)</text>
          <text class="triangle-float1"  stroke-width="1" transform="rotate(5, 293.758, 319.5)" font-style="normal" font-weight="normal" xml:space="preserve" text-anchor="start"  font-size="15" id="svg_1"  y="525" x="360" fill="rgba(21, 122, 110, 0.6)" stroke="#157A6E">const { activeLeader } = useSelector(state =&gt; state.leader)</text> -->
    </g>
    <defs>
        <mask id="SvgjsMask1076">
            <rect width="1440" height="560" fill="#ffffff"></rect>
        </mask>
        <style>
            @keyframes float1 {
                0%{transform: translate(0, 0)}
                50%{transform: translate(-20px, 0)}
                100%{transform: translate(0, 0)}
            }

            .triangle-float1 {
                animation: float1 6s infinite;
            }

            @keyframes float2 {
                0%{transform: translate(0, 0)}
                50%{transform: translate(-10px, -10px)}
                100%{transform: translate(0, 0)}
            }

            .triangle-float2 {
                animation: float2 4s infinite;
            }

            @keyframes float3 {
                0%{transform: translate(0, 0)}
                50%{transform: translate(0, -10px)}
                100%{transform: translate(0, 0)}
            }

            .triangle-float3 {
                animation: float3 6s infinite;
            }
        </style>
    </defs>
</svg>