<svg xmlns="http://www.w3.org/2000/svg" version="1.1"
    xmlns:xlink="http://www.w3.org/1999/xlink" class="w-full h-full absolute z-0"
    xmlns:svgjs="http://svgjs.com/svgjs" width="1600" height="900" preserveAspectRatio="none" viewBox="0 0 1600 900">
    <g mask="url(&quot;#SvgjsMask1054&quot;)" fill="none">
        <rect width="1600" height="900" x="0" y="0" fill="rgba(43, 43, 43, 1)"></rect>
        <path d="M -545.7555120975318,318 C -465.76,366.4 -305.76,542.4 -145.75551209753175,560 C 14.24,577.6 94.24,381.6 254.24448790246825,406 C 414.24,430.4 494.24,679.6 654.2444879024682,682 C 814.24,684.4 894.24,448.6 1054.2444879024683,418 C 1214.24,387.4 1345.09,541.8 1454.2444879024683,529 C 1563.4,516.2 1570.85,389 1600,354" stroke="rgba(21, 122, 110, 1)" stroke-width="2"></path>
        <path d="M -501.0964209788865,428 C -421.1,469 -261.1,651.6 -101.0964209788865,633 C 58.9,614.4 138.9,365.6 298.9035790211135,335 C 458.9,304.4 538.9,495.4 698.9035790211135,480 C 858.9,464.6 938.9,225.4 1098.9035790211135,258 C 1258.9,290.6 1398.68,656.8 1498.9035790211135,643 C 1599.12,629.2 1579.78,279.8 1600,189" stroke="rgba(21, 122, 110, 1)" stroke-width="2"></path>
        <path d="M -265.17499959722306,557 C -185.17,503 -25.17,258 134.8250004027769,287 C 294.83,316 374.83,694 534.8250004027769,702 C 694.83,710 774.83,346.2 934.8250004027769,327 C 1094.83,307.8 1174.83,623 1334.8250004027768,606 C 1494.83,589 1681.79,225.4 1734.8250004027768,242 C 1787.86,258.6 1626.97,599.6 1600,689" stroke="rgba(21, 122, 110, 1)" stroke-width="2"></path>
        <path d="M -50.94913941775383,593 C 29.05,535.8 189.05,304.4 349.0508605822462,307 C 509.05,309.6 589.05,586 749.0508605822462,606 C 909.05,626 989.05,433.8 1149.050860582246,407 C 1309.05,380.2 1389.05,478.8 1549.050860582246,472 C 1709.05,465.2 1938.86,373.2 1949.050860582246,373 C 1959.24,372.8 1669.81,451.4 1600,471" stroke="rgba(21, 122, 110, 1)" stroke-width="2"></path>
    </g>
    <defs>
        <mask id="SvgjsMask1054">
            <rect width="1600" height="900" fill="#ffffff"></rect>
        </mask>
    </defs>
</svg>