<svg version="1.0"
        class="uhd:w-300 hd:w-250"
        xmlns="http://www.w3.org/2000/svg" viewBox="0 0 300 300">
        <path class="path" stroke="currentColor" stroke-width="1" d="M143.9 3.7c-.1.4-.1 1.1 0 1.5 0 .5-.4.8-1 .8-1.5 0-3.9 2.6-3.2 3.4.4.3 0 .6-.7.6s-1.1.3-.7.6c.3.4 1.8-.3 3.3-1.5 1.5-1.1 3.3-2.1 4.1-2.1 1.7 0 1.3-3.2-.4-3.8-.7-.2-1.4 0-1.4.5zM153.2 5.8L151 8.1l3.7-.7c4.1-.7 7.2-2.9 5.9-4.1-.4-.4-1.2 0-1.7 1-1.2 2-2.6 2.2-3.1.4-.2-.8-1.1-.4-2.6 1.1zM137 6c0 1.9.3 2.1 1.2 1.2.9-.9.9-1.5 0-2.4-.9-.9-1.2-.7-1.2 1.2zM129.6 5.9c-.3.5.6.8 2 .8 1.9 0 2.2-.2 1.3-.8-1.8-1.1-2.6-1.1-3.3 0zM163.7 5.7c-1 .9-.8 3.3.2 3.3.5 0 1.1-.9 1.4-2 .5-2-.3-2.6-1.6-1.3zM169.5 6c-.4.6-1.1.8-1.6.5-1.4-.9-1.1.9.6 3.1 1.2 1.6 1.4 1.6.9.2-.4-1.1 0-2 1-2.4.9-.3 1.6-1 1.6-1.5 0-1.2-1.7-1.1-2.5.1zM176 8c0 .5-1.1 1-2.5 1s-2.5.5-2.5 1.1c0 .6.6.9 1.4.6.8-.3 1.7-.1 2 .6.3.9.5.9.5-.1.1-.6 1-1.2 2.1-1.2 1.3 0 1.8-.5 1.4-1.5-.7-1.7-2.4-2-2.4-.5zM121.5 9c-.3.5-.1 1 .4 1 .6 0 1.1-.5 1.1-1 0-.6-.2-1-.4-1-.3 0-.8.4-1.1 1zM131.5 8.9c-.3.5-.1 1.2.5 1.6.5.3 1-.1 1-.9 0-1.8-.6-2.1-1.5-.7zM125 10.1c0 .5.5.7 1 .4.6-.3 1-.8 1-1.1 0-.2-.4-.4-1-.4-.5 0-1 .5-1 1.1zM128.5 9.9c.4.8.2 1.7-.6 2.2-.9.6-1 .9-.2.9 1.9 0 2.7-2.1 1.3-3.3-1-.9-1.1-.9-.5.2zM157.5 10c.4.6 1.1.8 1.6.5 1.4-.9 1.1-1.5-.7-1.5-.8 0-1.2.5-.9 1zM135 11c0 .5.5 1 1 1 .6 0 1-.5 1-1 0-.6-.4-1-1-1-.5 0-1 .4-1 1zM113.9 11.2c0 .2-.2 1.1-.4 2.1-.3 1.8-.3 1.8 1.6.1 1-.9 1.9-1.9 1.9-2.1 0-.3-3-.4-3.1-.1zM122 13c-1.2 2.3.2 2.7 1.9.6.8-.9.8-1.6.2-2-.6-.4-1.5.3-2.1 1.4zM181 11.8c-1.3.2-3.3 1-4.4 1.8-2 1.4-2 1.4.1 1.4 1.2 0 2.7.8 3.2 1.7.6 1 1.1 1.3 1.1.6 0-.6-.4-1.5-1-1.8-1.9-1.2-1-2.5 1.4-1.9 1.3.3 2.7.1 3-.4.8-1.4-.4-1.9-3.4-1.4zM143.6 13.7c-.6 1.4-.5 1.5.5.6.7-.7 1-1.5.7-1.8-.3-.3-.9.2-1.2 1.2zM115.6 14.8c-.2.4.9 1.5 2.5 2.4l2.9 1.7-1.6-2.5c-1.7-2.5-2.9-3-3.8-1.6zM185 16.4c0 .9.3 1.5.8 1.5 2.2-.4 3.4.3 2.8 1.6-.3.9 0 1.5 1 1.5.8 0 2.2-.7 3-1.5 1.4-1.3 1.3-1.5-.6-1.5-1.1 0-3.2-.7-4.5-1.6-2.3-1.5-2.5-1.5-2.5 0zM132 17c0 .5.5 1 1.1 1 .5 0 .7-.5.4-1-.3-.6-.8-1-1.1-1-.2 0-.4.4-.4 1zM106.4 17.7c1.5.4 1.6.7.5 1.3-.7.5-1 1.2-.6 1.6.3.4 1.4.1 2.2-.6 1.3-1.1 1.3-1.5.3-2.1-.7-.5-2-.8-2.8-.8-.9.1-.8.3.4.6zM112 17.4c0 .2.8 1 1.8 1.7 1.5 1.3 1.6 1.2.3-.4s-2.1-2.1-2.1-1.3zM101.7 20c-.3 1.1-.3 2-.1 2 .2 0 .8-.9 1.4-2 .6-1.1.7-2 .2-2-.6 0-1.2.9-1.5 2zM195 19c0 .5.4 1 .9 1 .6 0 1.3-.5 1.6-1 .3-.6-.1-1-.9-1-.9 0-1.6.4-1.6 1zM169 20c0 .5.5 1 1.1 1 .5 0 .7-.5.4-1-.3-.6-.8-1-1.1-1-.2 0-.4.4-.4 1zM151.1 22.6c0 1.1.3 1.4.6.6.3-.7.2-1.6-.1-1.9-.3-.4-.6.2-.5 1.3zM145.7 23.4c-.4 1-.1 1.3.9.9 1.5-.6 1.9-2.3.5-2.3-.5 0-1.1.7-1.4 1.4zM156 23.5c0 .8.4 1.5 1 1.5.5 0 .7-.7.4-1.5-.4-.8-.8-1.5-1-1.5-.2 0-.4.7-.4 1.5zM193.4 22.9c.6.8-.1 1-2.1.6-2.5-.5-2.6-.4-.5.4 1.2.6 2.8.8 3.6.5 1.1-.4 1.6.4 1.8 2.8.2 2.2.5 2.8 1 1.7.8-1.9-1.1-6.1-3.1-6.7-.9-.3-1.1 0-.7.7zM101.5 24c-.3.5-.1 1 .4 1 .6 0 1.1-.5 1.1-1 0-.6-.2-1-.4-1-.3 0-.8.4-1.1 1zM140.5 24c-.3.5-.2 1 .4 1 .5 0 1.3-.5 1.6-1 .3-.6.2-1-.4-1-.5 0-1.3.4-1.6 1zM96.6 24.8c-.2.4 1.1 1.8 3 3 3 2 3.3 2 2.3.4-1.5-2.4-4.7-4.4-5.3-3.4zM127.8 24.7c.7.3 1.6.2 1.9-.1.4-.3-.2-.6-1.3-.5-1.1 0-1.4.3-.6.6zM164 25.4c0 .9.5 1.6 1 1.6.6 0 1-.4 1-.9 0-.6-.4-1.3-1-1.6-.5-.3-1 .1-1 .9zM202.8 24.7c.7.3 1.6.2 1.9-.1.4-.3-.2-.6-1.3-.5-1.1 0-1.4.3-.6.6zM110.5 26c-.3.5.1 1 .9 1s1.8-.5 2.1-1c.3-.6-.1-1-.9-1s-1.8.4-2.1 1zM171 26c0 .5.5 1 1 1 .6 0 1-.5 1-1 0-.6-.4-1-1-1-.5 0-1 .4-1 1zM176.7 25.7c-1 .9-.9 2.3.1 2.3.5 0 .9-.7.9-1.5 0-1.7-.1-1.8-1-.8zM137.5 27c.3.5.8 1 1.1 1 .2 0 .4-.5.4-1 0-.6-.5-1-1.1-1-.5 0-.7.4-.4 1zM161.5 27.1c-.4.6-.5 1.2-.2 1.5.2.3.7-.2 1-1.1.7-1.7.1-2-.8-.4zM199.5 27c-.3.5.3 1 1.4 1 1.2 0 2.1.5 2.1 1.1 0 .5.5.7 1.1.4.6-.5.4-1.2-.8-2.1-2.2-1.6-3-1.7-3.8-.4zM121 29.5c0 .8.2 1.5.4 1.5s.6-.7 1-1.5c.3-.8.1-1.5-.4-1.5-.6 0-1 .7-1 1.5zM133.6 28.9c-.3.4-1.8.7-3.3.5-2.7-.4-2.7-.3-.3.5 2.7.8 5 .4 5-1 0-1.1-.7-1.2-1.4 0zM156.8 29.7c.7.3 1.6.2 1.9-.1.4-.3-.2-.6-1.3-.5-1.1 0-1.4.3-.6.6zM180 29.4c0 .2.7.6 1.5 1 .8.3 1.5.1 1.5-.4 0-.6-.7-1-1.5-1s-1.5.2-1.5.4zM187.7 30.1c.7.7 1.5 1 1.8.7.3-.3-.2-.9-1.2-1.2-1.4-.6-1.5-.5-.6.5zM94.7 30.6c-.4.4-.7 1.4-.7 2.3 0 1.1.3 1.2 1.1.4.6-.6 1-1.6.7-2.3-.2-.6-.7-.8-1.1-.4zM146.5 31.6c.9.9 1.9 1.3 2.3 1 .3-.4 0-1.1-.8-1.6-2.4-1.5-3.3-1.1-1.5.6zM165.6 30.9c-.4.5-.2 1.2.3 1.5.5.4 1.2.2 1.5-.3.4-.5.2-1.2-.3-1.5-.5-.4-1.2-.2-1.5.3zM175.8 33c-.3 1.6-.1 3 .4 3 .4 0 .8-1.4.8-3 0-1.7-.2-3-.4-3s-.6 1.3-.8 3zM209 31c0 .5.5 1 1.1 1 .5 0 .7-.5.4-1-.3-.6-.8-1-1.1-1-.2 0-.4.4-.4 1zM127.7 31.7c-.4.3-.7 1.1-.7 1.7 0 .6.5.5 1.2-.2.6-.6.9-1.4.7-1.7-.3-.3-.9-.2-1.2.2zM138.5 32.4c-3 1.1-3.1 1.3-2.3 5 1.2 5.5 2.1 6 1.6.9-.2-2.3 0-3.9.4-3.7.3.2.9 0 1.3-.6.3-.5 1.5-1 2.6-1s1.7-.5 1.4-1c-.7-1.2-1-1.1-5 .4zM116.5 33c.3.5.8 1 1.1 1 .2 0 .4-.5.4-1 0-.6-.5-1-1.1-1-.5 0-.7.4-.4 1zM154.6 33.1c.5.8-.1 1-1.9.5-1.4-.3-2.9-.1-3.2.4-.4.6-1 .8-1.4.6-.4-.3-.8.1-.8.9s.4 1.5.9 1.5c.4 0 .8-.5.8-1.1 0-.7 1.6-.9 4.6-.6 3.6.3 4.4.1 4-1-.4-.8-.6-1.7-.6-1.9 0-.2-.7-.4-1.6-.4-.9 0-1.2.5-.8 1.1zM171 32.4c0 .2.7.6 1.5 1 .8.3 1.5.1 1.5-.4 0-.6-.7-1-1.5-1s-1.5.2-1.5.4zM189.1 33c0 .8.3 2.1.8 2.8.6 1 1 1 2.1-.3.7-.8 1-1.8.6-2.2-.3-.3-.6-.1-.6.5 0 1.9-1.8 1.4-2.3-.6-.3-1.2-.5-1.3-.6-.2zM203 32.8c0 .5.7.9 1.5.9s1.2-.4.9-.9c-.3-.4-.9-.8-1.5-.8-.5 0-.9.4-.9.8zM89.5 34.6c.9.9 1.8 1.4 2.1 1.1.9-.9-.6-2.7-2.2-2.7-1.3 0-1.3.2.1 1.6zM159.7 33.7c-.4.6 0 1.4.9 1.7.9.3 1.2 1.1.8 1.8-.6 1-.4 1.1.7 0 1.9-1.8 4.9-1.5 5 .5 0 1.4.3 1.2 1-.5.7-1.8 1.4-2.2 3.1-1.7 1.9.5 2 .4.6-.5-.9-.5-2.7-.8-4-.6-1.3.2-2.9-.1-3.5-.6-1-.8-1.3-.5-1.3.8 0 1.7-.1 1.7-1.3-.1-.9-1.1-1.6-1.4-2-.8zM109.5 34.9c-1.9.4-2.6.9-1.8 1.4 1.5.9 6.3-.2 6.3-1.4 0-1-.1-1-4.5 0zM86.5 36c-.3.5-.2 1 .4 1 .5 0 1.3-.5 1.6-1 .3-.6.2-1-.4-1-.5 0-1.3.4-1.6 1zM100.5 37c-.3.5-.1 1 .4 1 .6 0 1.1-.5 1.1-1 0-.6-.2-1-.4-1-.3 0-.8.4-1.1 1z"/>
        <path class="path" stroke="currentColor" stroke-width="1" d="M152.6 36.9c-.4.7-.5 1.5-.2 1.8.9.9 1.9-.4 1.4-1.8-.4-1.1-.6-1.1-1.2 0zM208.5 36.9c-2.4.5-2.6.8-1.2 1.3 1.9.8 4.7 0 4.7-1.3 0-.5-.1-.8-.2-.8-.2.1-1.6.4-3.3.8zM195.6 37.9c-.4.5.3.7 1.4.4 2.3-.6 2.6-1.3.6-1.3-.8 0-1.7.4-2 .9zM200 39.3c0 1.1.9 2.1 1.9 2.4 1.1.3 2.2 1.1 2.5 1.9.3.8 1.2 1.4 2.1 1.4.8 0 1.5.7 1.5 1.5s.5 1.5 1 1.5c.6 0 1 .7 1 1.5s.4 1.5 1 1.5c.5 0 1.6 1.5 2.4 3.2 2 4.4 5.8 11 7.4 12.6 1.2 1.3 1.7 3.8 1.4 7.7-.2 1.9-.1 1.9 1.2.2 1.4-1.8 1.4-1.8 2 0 .3 1 .4.6.2-.9s.2-3 .8-3.3c.6-.2.1-.2-1.1.1-1.8.4-2.2.2-1.7-1 .4-.9.1-2.3-.6-3.1-.6-.8-.9-1.9-.5-2.5.4-.6-.5-2.2-2-3.6-2-1.8-2.5-3-1.9-4.7.6-1.9.5-2-1-.8s-2 .8-1.7-1.2c.1-.8-.4-1.5-4.4-6.1-2.7-3.1-3.3-4.4-1.2-2.9 2.1 1.7 4.6 2.3 4.1 1-.6-1.6-5.4-3.8-5.4-2.5 0 .5-.6.8-1.2.5-.7-.2-1.2-1-1-1.6.1-.6-.8-1.1-1.9-1.1-1.2 0-2.8-.8-3.5-1.8-1.3-1.6-1.3-1.6-1.4.1zM91.7 41.1c-3.1 1.8-6.8 6.1-6.4 7.4.4.8-.3 1.1-2.1.8-2.7-.3-2.7-.3-.3.7l2.4 1-3.1 2.9c-1.7 1.6-2.8 3.2-2.4 3.5.3.3 0 .6-.6.6C77.7 58 68 68 68 69.4c0 .6-.5.4-1-.4-.7-1.2-.9-1.1-.8.5 0 2.2-1.6 10-2.7 13-.7 1.9-.7 1.9.7.1 1-1.2 1.7-1.5 2.2-.8.3.6.2 1.3-.4 1.7-.5.3-1 1.6-.9 2.8 0 2.1.1 2.1 1.1-.3 1.6-4 1.9-6.8.8-7.5-1.3-.8-.2-5.3 1.9-8.2 1.2-1.5 2.3-2 4.2-1.6 2.3.4 2.8-.1 4.8-4.1C79 62.1 80.5 60 81 60c.6 0 1-.5 1-1 0-.6 1.1-2.3 2.5-3.8s2.5-3.1 2.5-3.5c0-.5 1.2-2.4 2.6-4.3 1.5-1.9 2.1-3.4 1.5-3.4-.7 0-.9-.5-.6-1 .4-.6 1.5-.8 2.6-.5 1.3.4 1.9.2 1.9-.9 0-1.8-.8-2-3.3-.5zM77.4 63.2c-.3.7-1.6 2.1-2.9 3.1-2.9 2.1-3.4.4-.8-2.5 1.8-2 4.5-2.5 3.7-.6zM140.5 42.1c-.4.6-.5 1.2-.2 1.5.2.3.7-.2 1-1.1.7-1.7.1-2-.8-.4zM83.5 42.9c-.3.5-.1 1.2.5 1.6.5.3 1-.1 1-.9 0-1.8-.6-2.1-1.5-.7zM215 43c0 .6.7 1 1.5 1s1.5-.2 1.5-.4-.7-.6-1.5-1c-.8-.3-1.5-.1-1.5.4zM217.5 46c-.3.5-.1 1 .4 1 .6 0 1.1-.5 1.1-1 0-.6-.2-1-.4-1-.3 0-.8.4-1.1 1z"/>
        <path class="path" stroke="currentColor" stroke-width="1" d="M78.6 47.9c-.3.4-1 1.9-1.5 3.3-.7 1.9-.6 2.5.5 2.5.8 0 1.3-.5 1.1-1.1-.2-.6 0-2.1.4-3.4.8-2.2.5-3-.5-1.3zM217 49.6c.8.8 2.2 2 3.2 2.5 1.4.7 1.8.6 1.8-.6 0-.8-.7-1.5-1.5-1.5s-1.5-.5-1.5-1c0-.6-.7-1-1.6-1-1.4 0-1.4.3-.4 1.6zM72.5 55c-.3.5.1 1 .9 1 .9 0 1.6-.5 1.6-1 0-.6-.4-1-.9-1-.6 0-1.3.4-1.6 1zM222 55.9c.5 1.1 1.5 2.3 2 2.6.6.3 1 1.4 1 2.4s.7 2.4 1.5 3.1c2 1.7 1.9 3.1-.2 2.3-1.3-.5-1.2-.1.5 1.7 1.2 1.3 2 3 1.7 3.8-.2.7-.1 1.1.4.8 1-.7 3.2 6.4 2.4 7.7-.3.6-.1.7.5.3 1.4-.9 1.5-3 .3-5.4-.6-.9-1.7-4.4-2.6-7.7-.9-3.3-2.1-6.7-2.6-7.5-.5-.8-1.2-2.2-1.6-3-.7-1.6-2.3-3-3.6-3-.4 0-.3.9.3 1.9zM76.5 56c.3.5.8 1 1.1 1 .2 0 .4-.5.4-1 0-.6-.5-1-1.1-1-.5 0-.7.4-.4 1zM72 58.6c0 .8.5 1.2 1 .9.6-.4.8-1.1.5-1.6-.9-1.4-1.5-1.1-1.5.7zM68.3 62.6c-.7.3-.9 1.2-.6 1.9.4 1.2.7 1.2 1.9 0 2.3-2.2 1.7-3.1-1.3-1.9zM70.5 71c-.3.5-.2 1 .4 1 .5 0 1.3-.5 1.6-1 .3-.6.2-1-.4-1-.5 0-1.3.4-1.6 1zM63 73.5c0 .8.2 1.5.4 1.5s.6-.7 1-1.5c.3-.8.1-1.5-.4-1.5-.6 0-1 .7-1 1.5zM153.8 73.7c.7.3 1.6.2 1.9-.1.4-.3-.2-.6-1.3-.5-1.1 0-1.4.3-.6.6zM71.5 75c.3.5.8 1 1.1 1 .2 0 .4-.5.4-1 0-.6-.5-1-1.1-1-.5 0-.7.4-.4 1zM72.7 78.1c.7.7 1.5 1 1.8.7.3-.3-.2-.9-1.2-1.2-1.4-.6-1.5-.5-.6.5zM76.7 79.1c.4 1.3.8 1.8 1.1 1 .2-.7-.1-1.8-.6-2.3-.8-.8-.9-.4-.5 1.3zM225.9 78.8c-1.3 1.5-1.2 1.6.3.4 1.3-1 1.7-1 2.1 0 .4.9.6.9.6.1.2-2-1.6-2.4-3-.5zM227 81.8c0 .4.7 1.6 1.5 2.6 1.5 1.9 1.5 1.9 1.5-.1 0-1.1-.7-2.3-1.5-2.7-.8-.3-1.5-.2-1.5.2zM232.6 83.6c-.8 2.2-.8 9.9.1 9 .8-.8 1.7-10.6 1-10.6-.3 0-.8.7-1.1 1.6zM69.8 84.7c.7.3 1.6.2 1.9-.1.4-.3-.2-.6-1.3-.5-1.1 0-1.4.3-.6.6zM75 85.6c0 .8.5 1.2 1 .9.6-.3 1-1 1-1.6 0-.5-.4-.9-1-.9-.5 0-1 .7-1 1.6zM224 85.6c0 .8.5 1.2 1 .9.6-.3 1-1 1-1.6 0-.5-.4-.9-1-.9-.5 0-1 .7-1 1.6zM62.1 86.6c0 1.1.3 1.4.6.6.3-.7.2-1.6-.1-1.9-.3-.4-.6.2-.5 1.3zM224.8 88.6c-.4.5-.2 3 .4 5.5 2.5 10.8 4.3 26.4 4.2 37.6 0 5.7.2 10 .5 9.7 1.6-1.6 3.6-10.3 3-12.7-.4-1.6-.3-2.7.2-2.7.6 0 .8-.4.5-.8-.6-.9-.7-15.5-.2-23.7.3-4.2.2-4.8-.2-2-.7 3.8-2.1 5-3.8 3.2-.4-.4 0-.7.8-.7 1.1 0 1.4-.6 1.1-2.1-.4-1.3-1.1-1.8-2.2-1.5-1.3.5-1.3.4.2-.8.9-.7 1.7-1.9 1.7-2.7 0-1.1-.2-1.1-1 .1-.8 1.2-1 1.2-1.1-.5-.1-1.7-.2-1.6-1 .5-.8 2.2-.8 2.1-.4-.8.2-1.7 0-3.2-.5-3.2-.4 0-1-.8-1.2-1.8-.2-1-.6-1.3-1-.6zM72 90.9c-.5 1.1-1 2.9-1 4 0 1.2-.4 2.1-.9 2.1-1.6 0-2.4 9-.9 10.8 1.2 1.5 1.1 1.6-.5.3-.9-.8-2.1-1.1-2.4-.7-.4.4-.2 1 .4 1.4 1.6 1 2.6 18.9 1 19.6-.9.3-.9.7.1 1.4.7.5 1.2 1.3 1.1 1.8-.2 1 .4 2.9 2.9 8.4 1.6 3.7 1.9 5.2 2.1 12.2.1 3.6.5 4.8 1.7 4.8.8 0 1.2-.5.9-1-.4-.6-.9-3.4-1.1-6.3-.3-2.9-1.2-9.4-2.1-14.6-1.7-10.3-1.3-35.2.7-37.6.6-.7.7-2.7.3-4.5-.4-2.4-.3-3.1.5-2.6.7.4 1.2.2 1.2-.3 0-1.8-2.9-1.2-4 .8zm.7 4.3c-.3.8-.6.5-.6-.6-.1-1.1.2-1.7.5-1.3.3.3.4 1.2.1 1.9zm-2 10c-.3.7-.5.2-.5-1.2s.2-1.9.5-1.3c.2.7.2 1.9 0 2.5zM62.1 91.6c0 1.1.3 1.4.6.6.3-.7.2-1.6-.1-1.9-.3-.4-.6.2-.5 1.3zM229 91c0 .5.5 1 1 1 .6 0 1-.5 1-1 0-.6-.4-1-1-1-.5 0-1 .4-1 1zM64.7 91.6c-.3.3-.3 1.2 0 2s-.1 1.4-.8 1.4c-1.1 0-1.3 1.4-1.1 6 .2 3.3.8 6 1.2 6 .5 0 .8-.8.8-1.8-.1-.9.2-2.7.6-4 .5-1.3.3-2.2-.3-2.2s-1.1-.7-1.1-1.6c0-.8.5-1.2 1-.9.6.4 1-.7 1-2.4 0-3.2-.2-3.6-1.3-2.5zM113 94c-.9.6-1 1-.3 1 .6 0 1.5-.5 1.8-1 .8-1.2.4-1.2-1.5 0zM132.5 94c.3.5 1.1 1 1.6 1 .6 0 .7-.5.4-1-.3-.6-1.1-1-1.6-1-.6 0-.7.4-.4 1zM173.5 94c-.3.5-.4 1.4 0 1.9.3.6.1 2.9-.4 5.2-.6 2.7-.6 3.8 0 3.2.6-.6 1.1-1.7 1.3-2.6.4-3 2.7-4.6 5.7-4 1.7.3 2.9.1 2.9-.5s-1.9-1-4.2-.9c-3.5.1-4.3-.2-4.2-1.6.2-1.9-.2-2.2-1.1-.7zM139.5 98.4c-.5 2.8-.3 5.2.2 5.7 1.4 1.4 2.6-6.7 1.4-8.9-.7-1.2-1.1-.5-1.6 3.2zM198 95c0 .5.5 1 1.1 1 .5 0 .7-.5.4-1-.3-.6-.8-1-1.1-1-.2 0-.4.4-.4 1zM202.3 95.5c-.9 1-.8 1.4.8 1.8 1.2.3 1.9 0 1.9-.8 0-2-1.3-2.5-2.7-1zM165 95.9c0 .5.9 1.1 2 1.4 1.1.3 2 1.3 2.1 2.4 0 1.4.2 1.3 1-.6.5-1.3.8-2.5.7-2.6-1.1-.8-5.8-1.4-5.8-.6zM97.4 97.1c-.4.8 0 .9 1.5.4 2.2-.7 3 1 .9 1.8-.7.2-1 .7-.7 1.1.3.3 1.7.2 3-.3s1.8-1 1.2-1c-2.2-.1-1.4-1.9 1-2.4 1.2-.2.3-.5-2-.6-2.3 0-4.5.4-4.9 1zM108.8 96.7c.7.3 1.6.2 1.9-.1.4-.3-.2-.6-1.3-.5-1.1 0-1.4.3-.6.6zM120 96.9c0 .5-2.5 1.3-5.5 1.6-7.6 1-5.9 2.5 2 1.8 5.1-.4 6.5-.3 6.5.8.1 1 .4.8 1.1-.4.8-1.3 1.4-1.5 2.9-.7 2.6 1.4 3 1.3 3-.9 0-2-3.2-3.9-3.8-2.3-.2.6-1.2.7-2.4.4-1.4-.3-1.9-.1-1.4.6.4.7.1 1.2-.8 1.2-1 0-1.3-.6-1-1.5.4-.8.3-1.5 0-1.5s-.6.4-.6.9zM134.6 97.1c.3.6 0 1.5-.7 2-.7.4-1 1.1-.6 1.5 1.1 1.1 4.1-2.2 3.3-3.5-.4-.6-1.2-1.1-1.7-1.1-.6 0-.7.5-.3 1.1zM185.6 97.5c.4.8 1.1 1.5 1.6 1.5.6 0 .5-.6-.2-1.5-.7-.8-1.4-1.5-1.6-1.5-.2 0-.1.7.2 1.5zM189 98c0 1.2.4 1.9 1 1.5 1.5-.9 6 .6 6 2.1 0 .8-.7 1.4-1.6 1.4-.8 0-1.2-.5-.9-1 .3-.6.1-1-.4-1-.6 0-1.1.4-1.1.8 0 .5-1 1.4-2.2 2-2 .9-1.8 1.1 2.1 1.1 3.1.1 4.8-.4 5.7-1.7 1.2-1.4 1.5-1.5 2.3-.2.5.8.7 1.9.3 2.5-.3.5 0 .5.9-.1.8-.7 3.1-1.4 5.2-1.7 3.3-.4 4.2-.1 7.1 2.9 3.5 3.6 6 4.5 4.9 1.8-.3-.8-1.1-1.3-1.8-1-.7.2-1.5-.4-1.8-1.4-.3-1.3-.1-1.7 1-1.3 1.1.4 1.4.2 1.1-.8-.3-.8-1.6-1.3-3-1.1-1.5.1-2.8-.4-3.1-1.2-.6-1.5-4.7-1.1-4.7.5 0 1.7-4.6.9-6.8-1.1-1.2-1.1-2.6-2-3.2-2-.6 0-2.4-.7-4-1.5-2.9-1.5-3-1.5-3 .5zM162.4 99.1c-.4.7.1 1.6 1 2.1s1.4 1.3 1.1 1.8c-.3.5-.1 1.1.4 1.4 1.2.8 2.1-1.8 1.4-4.3-.6-2.3-2.7-2.8-3.9-1zM182.5 99c-.3.5.1 1 .9 1 .9 0 1.6-.5 1.6-1 0-.6-.4-1-.9-1-.6 0-1.3.4-1.6 1z"/>
        <path class="path" stroke="currentColor" stroke-width="1" d="M203.8 98.7c-1.6.2-2.8.9-2.8 1.5s1.2.8 3.1.4c1.7-.3 3.6-.6 4.1-.6.5 0 .6-.5.3-1-.3-.6-.9-.9-1.3-.9-.4.1-1.9.4-3.4.6zM210.2 99.2c.5 1.5 2.8 2.3 2.8 1 0-.5-.7-1.3-1.6-1.6-1-.4-1.4-.1-1.2.6zM95 99.9c0 .6-1.1 1.3-2.5 1.7-1.4.3-3.5 1.8-4.6 3.3-1.9 2.4-2 2.6-.3 3 1 .2 2.4-.5 3.1-1.5.8-1.1 1.7-1.9 2.1-1.9 1.8-.2 5.2-1.7 5.2-2.4 0-.5-.7-1.4-1.5-2.1-1-.8-1.5-.9-1.5-.1zM105.8 99.7c.7.3 1.6.2 1.9-.1.4-.3-.2-.6-1.3-.5-1.1 0-1.4.3-.6.6zM177 100c0 .5.5 1 1 1 .6 0 1-.5 1-1 0-.6-.4-1-1-1-.5 0-1 .4-1 1zM125.4 102.2c-.5.7-.2.8.6.3 1-.6 1.2-.4.7.9-.5 1.1-.3 1.6.5 1.4.6-.2 1.3-.9 1.5-1.5.5-1.5-2.5-2.5-3.3-1.1zM185.4 102.1c-.3.6-.2 1.5.3 2s.9.1.9-1.1c0-2.3-.2-2.4-1.2-.9zM110.3 103.4c-.9 1.1-.7 1.4 1.3 1.2 1.3 0 2.4-.7 2.4-1.4 0-1.6-2.2-1.5-3.7.2zM119 103.1c0 .5.5.7 1 .4.6-.3 1-.8 1-1.1 0-.2-.4-.4-1-.4-.5 0-1 .5-1 1.1zM106 104.5c.7.9 1.5 1.3 1.7 1.1.7-.7-.7-2.6-1.9-2.6-.6 0-.6.6.2 1.5zM175.5 104c-.3.5.1 1 1 1s1.3-.5 1-1c-.3-.6-.8-1-1-1-.2 0-.7.4-1 1zM135.8 104.7c.7.3 1.6.2 1.9-.1.4-.3-.2-.6-1.3-.5-1.1 0-1.4.3-.6.6zM98.8 105.6c-.3.3-2 .6-3.7.6-1.7.1-3.1.5-3.1 1 0 .4 2.4.8 5.3.7 2.8 0 4.6-.3 3.9-.6-.6-.2-1-.9-.6-1.4.6-1-.9-1.3-1.8-.3zM167.7 106.6c.5 1.4.3 1.6-1.2 1-1.1-.4-1.6-.4-1.3 0 .4.3-.2 2.3-1.3 4.2-2 3.9-2.5 7.2-1 7.2.5 0 1.1-1.7 1.4-3.8.4-2 1.6-4.5 2.7-5.4 2.2-1.9 2.5-3.4 1-4.3-.6-.4-.7.1-.3 1.1zM208.1 105.9c-.9.6-.6 1 1 1.4 2.8.8 3.4.3 1.6-1.1-.7-.6-1.9-.7-2.6-.3zM179.6 108.2c.3.5 1 .6 1.5.3 1.3-.9 1.1-1.2-.6-1.2-.8 0-1.2.4-.9.9zM183.6 107.9c-.5.8 1.1 1.1 5.1 1.2 5.4 0 12.7 2 16.4 4.4.8.5 2.5 2.4 3.7 4.1 2.1 3 6.2 5.2 6.2 3.3 0-.5-.7-.9-1.5-.9s-1.5-.4-1.5-.8c0-2.4-7.4-8.2-12.2-9.7-7.1-2.2-15.4-3-16.2-1.6zM63.2 110c0 1.4.2 1.9.5 1.2.2-.6.2-1.8 0-2.5-.3-.6-.5-.1-.5 1.3zM103.5 110c-5.1 2.6-6.5 3.8-9.2 7.7-3.3 4.7-2.8 6.4.7 2.3 1.6-1.9 3-3.8 3-4.2 0-1.8 9.4-6 15.2-6.7l6.3-.8-6-.2c-4.2-.1-7.2.5-10 1.9zM120 109.3c0 .8.6 1.4 1.3 1.4.6 0 2.3.3 3.7.8 2.2.7 2.3.6 1.1-.9-1.2-1.4-1.1-1.6.5-1.7 1.1 0 1.4-.3.6-.6-.7-.3-2 .1-2.9.9-1.2.9-1.5.9-.9 0 .5-.8 0-1.2-1.3-1.2-1.2 0-2.1.6-2.1 1.3zM87 110.9c0 .5 1.4 1.1 3.2 1.3 2.8.5 2.9.4 1.3-.9-2.1-1.5-4.5-1.7-4.5-.4zM128.3 111c.2.8 1 1.5 1.8 1.6 2.4.1 5.9 1.5 5.5 2.2-.2.4.7 2.1 2 3.7 2.7 3.4 3.2 1.9.9-2.5-1.8-3.4-5-5.4-7.2-4.5-.9.3-2 0-2.5-.7-.7-1-.9-.9-.5.2zM172.8 110.7c.6.2.9 1 .5 1.6-.5.9-.3.9.8.1.8-.7 2.3-1.4 3.4-1.7 1.1-.2.2-.5-2-.5s-3.4.2-2.7.5zM212 110.7c0 .7.5 1.3 1.1 1.3.5 0 .8.4.5.9-.6.9 2.2 2.6 3.7 2.3.4-.1.7.3.7.9 0 .5.5.7 1 .4 1.4-.8.2-2.6-1.5-2.3-.7.2-2.2-.8-3.3-2.2-1.2-1.4-2.1-1.9-2.2-1.3zM168.5 112.9c.3.5.1 1.2-.5 1.6-.5.3-1 1.7-1 3.1 0 1.4-.4 2.3-.9 2-.4-.3-.6.6-.3 1.9.6 3.1 2.2 3.3 2.3.2.1-4.1.8-6.1 2.3-7.3 2.2-1.5 2-2.4-.5-2.4-1.1 0-1.8.4-1.4.9zM143.2 116.3c.1 2 .6 3.7 1 3.7s.5-1.5.1-3.3c-.8-4.6-1.4-4.8-1.1-.4z"/>
        <path class="path" stroke="currentColor" stroke-width="1" d="M186.5 113.6c-7.7 1.8-14.5 5.4-14.5 7.8 0 .8.3.8.8 0 .8-1.1 7.4-4.4 9-4.4.6 0 1.3 1.3 1.7 2.9.4 2.1 1.5 3.3 3.7 4 5.8 2 8.8 1 10.6-3.8.7-2.1.8-2 3.4.4 1.5 1.4 3.4 2.5 4.3 2.5.9 0 1.8.7 2.1 1.5.4.8 1.3 1.5 2.1 1.5 1.1 0 1-.7-.7-3-1.2-1.7-2.8-3-3.6-3-.8 0-1.4-.4-1.4-.8 0-2.4-13.1-6.6-17.5-5.6zm3.5 3.1c0-2.1.3-2.1 4-.2 3.6 1.8 3.6 2.2.8 4.6-2.5 2.2-3.8 2.3-7.3.7-2.8-1.3-3-2-1.4-5 1.1-2.1 1.2-2.1 2.5-.3 1.2 1.7 1.4 1.7 1.4.2z"/>
        <path class="path" stroke="currentColor" stroke-width="1" d="M191.6 118.6c-.4 1-1.2 1.4-2.4.9-1.2-.4-1.4-.3-.6.5 1.3 1.3 4.4.3 4.4-1.6 0-1.9-.6-1.8-1.4.2zM63.5 116.2c.1 1.3.5 2.2.8 2 .4-.1.7-.4.7-.7v-2c0-.8-.4-1.5-.8-1.5-.5 0-.8 1-.7 2.2zM107.6 115.8c-2.8.9-6.7 3.3-8.9 5.4-2.2 2.1-4.4 3.8-4.8 3.8-.4 0-1 .4-1.3.9-.9 1.4 3.7 0 5.7-1.7.9-.8 1.7-1.1 1.7-.6 0 .5.7-.2 1.6-1.4 1.7-2.4 3.4-2.9 3.4-.9 0 .7.6 2.1 1.4 3.2 2.8 3.8 12.6.9 12.6-3.9 0-3.2.7-3.6 4-1.9 1.7.8 4.3 1.5 6 1.5 3.5.1 4 1.3.8 2.1-1.2.4-2 .8-1.7 1.1.3.3 1.7.2 3.2-.2 2.4-.6 2.6-1 1.5-2.4-1.3-1.5-11.4-5.1-17.3-6.1-1.6-.3-5.2.2-7.9 1.1zm5.4 1.2c0 .5-.4 1-1 1-.5 0-1-.5-1-1 0-.6.5-1 1-1 .6 0 1 .4 1 1zm3.5 2.7c-.8 3.3-1.3 3.9-4.1 4.7-1.4.4-2.7-.1-4.3-1.8-2.6-2.8-2-5.6.7-3.4 1.3 1.1 1.4 1.1.7-.1-.5-1-.4-1.2.3-.7.7.4 1.2 1.7 1.3 2.9 0 1.2.3 1.6.6.9.2-.6.9-1.2 1.4-1.2.6 0 .7.5.3 1.2-.4.7-.3.8.5.4.6-.4.9-1.2.5-1.7-.8-1.4.3-3.9 1.7-3.9.7 0 .9 1 .4 2.7zM63 121.2c0 .7 1.1 2.3 2.4 3.6l2.4 2.2-.6-2.2c-.6-2.3-2.5-4.8-3.6-4.8-.3 0-.6.6-.6 1.2zM179.2 121.9c-1.1.6-.9.9.6 1.3s1.9.2 1.5-.8c-.6-1.6-.4-1.6-2.1-.5z"/>
        <path class="path" stroke="currentColor" stroke-width="1" d="M124.1 122.9c-.9.6-.7 1 .8 1.4 1.2.3 2.1.1 2.1-.3 0-1.4-1.5-1.9-2.9-1.1zM138 124c0 .5.5 1 1 1 .6 0 1-.5 1-1 0-.6-.4-1-1-1-.5 0-1 .4-1 1zM63.4 126.4c-.3.9-.1 2.2.5 3 .6.7.8 1.6.4 1.9-.3.4-.1.7.5.7.8 0 .9-1.1.5-3.3-.7-4-1.1-4.4-1.9-2.3zM201 126.5c-.8.9-.8 1.5-.2 1.5 1.2 0 2.6-1.9 1.9-2.6-.2-.2-1 .2-1.7 1.1zM100 128c-1.3.8-1.3 1 .2 1 .9 0 2-.5 2.3-1 .8-1.3-.5-1.3-2.5 0zM116.5 127.9c-1.8.4-2.5.9-1.8 1.4 1.1.7 6.3-.7 6.3-1.8 0-.6-.2-.5-4.5.4zM187.4 128.2c1 .5 2.4.7 3.3.4.8-.4 2.1-.2 2.8.4.9.8 1.5.8 2 0 .3-.6 1.1-.8 1.6-.5.5.4.9.1.9-.4 0-.7-2.4-1.1-6.1-1-4.5.1-5.7.4-4.5 1.1zM105.5 129c.3.5 1 1 1.6 1 .5 0 .9-.5.9-1 0-.6-.7-1-1.6-1-.8 0-1.2.4-.9 1zM110.9 128.9c-1.3.5-1.4.8-.4 1.8 1.4 1.3 3.7.2 2.7-1.3-.4-.6-1.4-.9-2.3-.5zM122.1 130.9c-1 .7-.7.9 1.2.8 1.5-.1 2.7-.5 2.7-1 0-1-2.2-.9-3.9.2zM183.4 131.6c2.2 2.1 7.2 3.4 12.6 3.3l4.5-.2-4.5-.7c-2.5-.4-5.7-1.2-7.2-1.8-1.6-.6-2.8-.8-2.8-.5 0 .4-.5.2-1.2-.5s-1.6-1.2-2.1-1.2-.1.7.7 1.6zM162.1 133.6c0 1.1.3 1.4.6.6.3-.7.2-1.6-.1-1.9-.3-.4-.6.2-.5 1.3zM62 135.3c0 1 .7 3.4 1.5 5.3 1.2 3 2.8 13.9 2.9 20.6 0 .9.4 1.4.9 1.1.5-.3.8.8.6 2.3-.4 5.6 1.2 11.9 4.2 15.4 2.1 2.6 2.9 3 2.9 1.7 0-.9-.4-1.7-1-1.7-2.1 0-3.8-6.2-5.5-20.5-1.2-10.1-2.5-16.8-4.1-20.5-1.3-3-2.3-4.7-2.4-3.7zM110 135c-1.9 1.2 4.2 1.2 8 0 2.1-.7 1.7-.8-2-.9-2.5 0-5.2.4-6 .9zM89.5 141.1c-.4.6-.5 1.2-.2 1.5.2.3.7-.2 1-1.1.7-1.7.1-2-.8-.4zM232.4 144.6c-.4 1.4-.3 7.1 0 12.7.4 5.6.8 11.7.8 13.4 0 3.7 1.3 4.4 2.1 1.3.3-1.1.2-2-.1-2-.4 0-.8-4.4-.9-9.8-.1-5.3-.3-9.9-.4-10.2 0-.3 0-2.2.1-4.3.2-4.3-.7-4.9-1.6-1.1zM170.1 149.6c0 1.1.3 1.4.6.6.3-.7.2-1.6-.1-1.9-.3-.4-.6.2-.5 1.3zM170 152.9c0 .5.5 1.3 1 1.6.6.3 1 .2 1-.4 0-.5-.4-1.3-1-1.6-.5-.3-1-.2-1 .4zM136 154.5c-1 1.2-1 1.5.4 1.5.9 0 1.6-.7 1.6-1.5s-.2-1.5-.4-1.5-.9.7-1.6 1.5zM223.3 157.5c-.3.9-.3 1.8-.1 2.1.3.3.8-.4 1.1-1.6.6-2.3-.1-2.7-1-.5zM133.5 159c.3.5.8 1 1.1 1 .2 0 .4-.5.4-1 0-.6-.5-1-1.1-1-.5 0-.7.4-.4 1zM228.6 159.3c.3 1 .9 1.5 1.2 1.2.3-.3 0-1.1-.7-1.8-1-.9-1.1-.8-.5.6zM75.2 160.2c.6 1.8 2.8 2.1 2.8.4 0-.9-.7-1.6-1.6-1.6-.9 0-1.4.5-1.2 1.2zM226.7 161.5c-.4.8-.2 1.7.3 2 .6.4 1-.3 1-1.4 0-2.5-.6-2.7-1.3-.6zM74 165c0 .6.7 1 1.5 1s1.5-.2 1.5-.4-.7-.6-1.5-1c-.8-.3-1.5-.1-1.5.4zM139.7 164.7c-2.3.6-1.7 2.7.9 3.1 4.2.7 7.6 2.6 8.5 4.9.4 1.2 1.6 2.3 2.6 2.3 1.5 0 1.6.2.3 1-1.2.8-1 1 1 1.1 1.4 0 3.4.2 4.5.5 1.1.2 3.1.1 4.5-.2 2.3-.6 2.4-.7.5-1.4-1.8-.8-1.7-.9.7-.9 1.5-.1 3-.6 3.3-1.1.3-.6 2.1-1 4-1 2.1 0 3.5-.6 3.9-1.6 1.1-2.9.6-3.7-1.1-2.2-2.4 2-8.2 4.2-9 3.4-.3-.3-1.2-.1-2 .5-.7.6-2.2.9-3.4.6-1.2-.3-2.2 0-2.6.9-.3.8-1 1.4-1.5 1.4-.6 0-.5-.6.2-1.5 1.1-1.3.8-1.5-1.3-1.5-1.7 0-3.1-.8-3.8-2.3-1.5-2.7-6-6.7-7.4-6.6-.5.1-1.8.3-2.8.6zM229 165.1c0 .5.5.7 1 .4.6-.3 1-.8 1-1.1 0-.2-.4-.4-1-.4-.5 0-1 .5-1 1.1z"/>
        <path class="path" stroke="currentColor" stroke-width="1" d="M168.3 166.6c-1.8.9-3.3 2.3-3.3 3 0 2.2 1.9 1.6 5.3-1.6 3.6-3.3 2.9-3.8-2-1.4zM226.1 166.6c0 1.1.3 1.4.6.6.3-.7.2-1.6-.1-1.9-.3-.4-.6.2-.5 1.3zM134 168.4c0 1.9 5.5 5.6 8.4 5.6 1.6 0 1.5-.3-.7-2-1.4-1.1-2.9-2-3.3-2-.4 0-1.6-.7-2.6-1.7-1.7-1.5-1.8-1.5-1.8.1zM224.6 170.8c-.2.4-.1 1.4.5 2.2.7 1.2.9 1 .9-.8 0-2.3-.5-2.8-1.4-1.4zM231.4 177.5c-.6 2.3-1.9 3-5.1 2.6-.7-.1-1.3.3-1.3.9 0 1.2.6 1.2 3.8.4 2.3-.7 6.1-6.4 4.2-6.4-.5 0-1.2 1.1-1.6 2.5zM155 181c0 1.4 1.5 1.9 2.9 1.1.9-.6.7-1-.8-1.4-1.2-.3-2.1-.1-2.1.3zM78 181c.2 3.2 3 16.4 3.7 17.1.5.5.4-2.7-.3-7.2-.8-4.6-1.8-8.7-2.4-9.3-.5-.5-1-.8-1-.6zM148.5 186.1c-.3.4.2.6 1 .5 2.1-.3 2.8-1.3 1-1.3-.9 0-1.8.4-2 .8zM174 187.5c-.7.9-.8 1.5-.2 1.5.5 0 1.2-.7 1.6-1.5.3-.8.4-1.5.2-1.5s-.9.7-1.6 1.5zM157.5 189c-.4.6-1.1.8-1.6.5-.5-.4-.9-.1-.9.4 0 1.6 1.6 1.3 3-.4.7-.8 1-1.5.7-1.5-.3 0-.9.5-1.2 1zM138 190c0 .5.7 1 1.5 1s1.5-.5 1.5-1c0-.6-.7-1-1.5-1s-1.5.4-1.5 1zM150.5 191c.3.5 1.1 1 1.6 1 .6 0 .7-.5.4-1-.3-.6-1.1-1-1.6-1-.6 0-.7.4-.4 1zM189.5 195c-.4.6.3 1 1.4 1 2.5 0 2.7-.6.6-1.3-.8-.4-1.7-.2-2 .3zM144.1 196.9c-.1.9-.9 1.2-2.8.8-1.4-.3-5.1.4-8.2 1.5-3.5 1.3-7.6 2-11 1.9-4-.2-5.2.1-4.9 1.1.6 1.7 7.2 1.8 12.4.2 6.5-2.1 38.6-2.7 45.1-.9 5.7 1.7 12.9 2.2 14 1.1 1.3-1.3-1.9-2.4-5.2-1.9-1.7.3-5.3-.2-7.9-1.1-2.6-.9-6.5-1.7-8.7-1.8-2.1-.1-3.9-.5-3.9-1 0-.4-.5-.8-1.1-.8-.5 0-.7.4-.4 1 .4.6-2.5 1-7.9 1-5.8 0-8.6-.4-8.9-1.3-.4-.9-.6-.8-.6.2zM83.2 203.7c.5 2.1 2 5.6 3.1 7.8 2.8 5.2 2.6 4.9 3.3 4.2.4-.3-.3-1.8-1.5-3.3-1.2-1.5-2.6-4.7-3.3-7.1-.6-2.4-1.4-4.6-1.8-4.8-.5-.3-.4 1.2.2 3.2zM115.1 204.6c1.3 1.6 2.9 1.9 2.9.5 0-.5-.9-1.1-2.1-1.4-1.6-.4-1.8-.3-.8.9zM166.2 206c-.7 1.1-.8 2-.2 2 .5 0 1.4-.9 2-2 .6-1.1.7-2 .3-2-.5 0-1.4.9-2.1 2zM161.8 205.7c.7.3 1.6.2 1.9-.1.4-.3-.2-.6-1.3-.5-1.1 0-1.4.3-.6.6zM219 209c0 .5.5 1 1.1 1 .5 0 .7-.5.4-1-.3-.6-.8-1-1.1-1-.2 0-.4.4-.4 1zM134.7 212c.3 1.2 1.1 1.9 1.8 1.6.7-.2 1.6-.2 2 .2 1.1 1.1 11.4.8 10.7-.3-.3-.6.2-.4 1.1.3 1 .9 2.4 1.1 3.9.6 2.2-.8 5-1.1 11.6-1.3 2.2-.1 3.2-.6 3.2-1.6 0-1.3-.9-1.5-4.7-1.1-2.7.3-9 .8-14.2 1.1-5.1.3-9.7.8-10.2 1.1-.5.3-1.9-.2-3.3-1.1-2.3-1.6-2.4-1.5-1.9.5zM192.5 220.1c-.4.6-.5 1.2-.2 1.5.2.3.7-.2 1-1.1.7-1.7.1-2-.8-.4zM89 228.6c-5.4 5.5-7.8 6.8-15.2 8.4-3.2.6-12.4 3.4-20.5 6.2-8.2 2.7-17.3 5.6-20.3 6.3-22.9 5.5-27.9 6.8-30.5 8.1l-3 1.5 4.5-.7c2.5-.3 5.3-.6 6.2-.7.9-.1 1.5-.4 1.2-.8-.2-.4 1-.9 2.7-1.1 2-.3 3.3 0 3.9 1.1.8 1.3.9 1.2 1-.6 0-1.7.6-2.1 2.8-2.1 6.5.1 8.4-.2 7.9-1.5-.3-.8.8-1.2 3.9-1.1 2.4 0 4.4-.4 4.4-.9s.9-.7 2-.4c1.1.3 2.3 0 2.7-.5.4-.7.1-.8-.7-.3-.8.5-1.1.4-.7-.2.4-.6 3.4-1.6 6.7-2.2 4-.8 5.8-1.6 5.4-2.3-.5-.8-.2-.9.9-.5 1 .4 2.4 1 3.2 1.3.8.3 1.5.2 1.5-.4 0-.6-.5-1.2-1.2-1.4-.6-.2.6-.5 2.8-.5 8.7-.3 10.9-.7 12.9-2.6l2-1.9-2.4 1.2c-1.3.7-3.3 1.3-4.5 1.5-1.1.2-3.7.6-5.6 1-6.8 1.5-1.9-.9 6.4-3 5.4-1.4 9-1.9 10-1.3 1.1.6 1.6.5 1.6-.3 0-.6.7-.9 1.5-.5.8.3 1.5.1 1.5-.5 0-1.8 9-10 10.2-9.3.7.4.8.3.4-.4s-.5-1.2-.2-1.2 1.3 1.4 2.2 3.1c.8 1.7 1.2 2.9.7 2.6-1-.6-1-1.4-1.1 31.8-.1 31.3-.1 30.6 1.1 29.8.5-.3.6.3.2 1.6-.4 1.3-.1 2.7.9 3.6 2 2.1 2.4 1.9 1.8-1.1-.3-2 0-2.6 1.7-3.1 1.1-.3 1.9-.9 1.6-1.3-.3-.5-1.3-.6-2.4-.3-1.7.4-1.9-.6-2.5-14.9-.3-8.4-.4-18-.2-21.2.3-3.2.6-10.8.7-16.8.1-10.1 0-11.1-2.2-13.4-1.2-1.3-2.5-2.4-2.9-2.4-.3 0-2.6 2.1-5 4.6zM206.7 225.7c-.4.3-.7 1.1-.7 1.7 0 .6.5.5 1.2-.2.6-.6.9-1.4.7-1.7-.3-.3-.9-.2-1.2.2zM209.2 230.2c-.5 2-.4 4.9.4 7.8 2 8 3.7 34.3 3 48.5-.4 8.3-.3 13.5.3 13.5.5 0 1.3-.9 1.6-2.1.9-2.7.9-34.6 0-42.2-.4-3.2-.7-8.3-.7-11.3-.1-3.1-.6-5.4-1.2-5.5-.6-.1 0-.4 1.4-.9 1.9-.6 2.9-.3 4.2 1.2 1 1.1 2.4 1.8 3.2 1.5.7-.3 2.3.1 3.5.9 1.2.8 2.6 1.2 3.1.9.6-.4 1-.3.9.2-.3 2 .2 3.4 1.1 2.8.6-.4.8-1 .5-1.5-.3-.4.5-.6 1.6-.3 2.1.6 2.1.7.4 2-1.1.7-1.4 1.3-.9 1.3.6 0 1.5-.5 2.1-1.1.9-.9 2.8-.6 7.5 1.1 3.5 1.3 6.5 2.6 6.8 2.9.3.3 1.6.7 3 .8 4.7.3 8 1 8.7 1.6.3.4 1.6.7 2.7.7 1.2 0 3.9.9 6 2.1 2.1 1.1 4.5 1.8 5.3 1.4.9-.3 2.1-.1 2.8.5.7.6 1.7 1 2.1.8.5-.1 2 .4 3.4 1.2 1.4.7 2.6 1.3 2.7 1.2.2-.1 1.1.1 2 .4 5.1 1.7 7.4 3.1 7.9 4.6.3 1 1 1.8 1.5 1.8 1.3 0 1.1-1.8-.3-2.3-.9-.4-1-.6-.1-.6.6-.1 1.9.6 2.7 1.5 1.3 1.3 1.6 1.3 1.6.1 0-2.8-15.5-9-35.5-14.2-18-4.6-45.7-13.9-48-16.1-1.3-1.2-3-3.5-3.9-5.3-.9-1.7-1.9-3.1-2.1-3.1-.2 0-.8 1.4-1.3 3.2zm64.5 25.4c-.3.3-1.2.4-1.9.1-.8-.3-.5-.6.6-.6 1.1-.1 1.7.2 1.3.5zM128 229.1c0 .5.5.7 1 .4.6-.3 1-.8 1-1.1 0-.2-.4-.4-1-.4-.5 0-1 .5-1 1.1zM203.7 228.7c-1.4 1.4-.7 3.2 1 2.6 1.1-.4 1.3-.8.5-1.1-.7-.2-1-.8-.6-1.3.6-1 0-1.2-.9-.2zM101.3 232.9c.4 1.8 2.3 5.6 4.2 8.5 3.7 5.7 13.6 15.6 15.5 15.6.6 0 4.8 3.4 9.3 7.6 11.4 10.6 11.7 10.9 16.4 13.3 4 2 4.4 2 8.5.5 2.4-.8 5.5-1.7 6.9-1.8 2.9-.3 13.3-6.3 17-9.9 1.3-1.3 4-3.4 5.9-4.7 7.9-5.3 22-22.9 22-27.5 0-1.4-1.1-.3-3.3 3.3-1.8 2.9-3.7 4.9-4.2 4.5-.4-.5-.5-.2-.1.5 1 1.7-1.9 6.1-5 7.2-1.3.5-2.4 1.6-2.4 2.4 0 1.9-5.9 6.8-7.2 6-.6-.4-.8-.2-.5.3.7 1.1-2 2.8-3.6 2.4-.5-.1-.6.2-.3.7.3.5-.6 1.5-1.9 2.2-1.3.7-2.2 1.7-1.8 2.3.3.5 0 .8-.7.5-.6-.2-2.8 1.1-4.7 2.9-1.9 1.8-4.2 3.3-5.2 3.3-.9 0-2.2.5-2.8 1.1-.5.5-2.6 1.1-4.6 1.2-1.9.1-3.3.5-3.1.9.2.4-.8.8-2.3 1-3 .3-11.3-3.7-11.3-5.5 0-.5-.3-.8-.6-.5-.7.7-5.4-3.9-5.4-5.3 0-.6-.4-.7-1-.4-.5.3-1 .1-1-.4 0-.6-.4-1.1-1-1.1-1.8 0-5.2-4.1-4.6-5.6.4-1-.2-1.4-1.9-1.4-1.4 0-3.2-1.1-4.4-2.6-1.2-1.5-2.1-2.1-2.1-1.4 0 .6-1.5-.1-3.2-1.6-1.8-1.5-3.1-2.9-2.8-3.1.3-.2-.3-.9-1.2-1.4-1.1-.6-1.5-2-1.4-4.3.2-2.5 0-3.3-1-2.9-1 .4-1.1 1-.3 2.4 1.4 2.7-.3 2.4-2.1-.4-1.4-2.1-1.5-2.6-1.9-5.7-.1-1.3-.2-1.3-1.2 0-.9 1.2-1 1.2-.7-.5.2-1.1-.5-2.8-1.5-3.9-2-1.9-2-1.9-1.4 1.3z"/>
        <path class="path" stroke="currentColor" stroke-width="1" d="M88.5 232c-.3.5-.1 1 .4 1 .6 0 1.1-.5 1.1-1 0-.6-.2-1-.4-1-.3 0-.8.4-1.1 1zM200 233.5c-.8.9-.8 1.5-.2 1.5 1.2 0 2.6-1.9 1.9-2.6-.2-.2-1 .2-1.7 1.1zM107 236.1c0 .5.5.7 1 .4.6-.3 1-.8 1-1.1 0-.2-.4-.4-1-.4-.5 0-1 .5-1 1.1zM123 238c0 .7 1 2.4 2.1 3.8l2.1 2.7-.7-2.5c-.9-2.8-3.5-5.8-3.5-4zM155 238.7c0 1.5 1.9 3.7 2.6 3.1.3-.4-.1-1.4-1-2.3-.9-.9-1.6-1.3-1.6-.8zM162.5 240.9c-.3.5-.1 1.2.5 1.6.5.3 1-.1 1-.9 0-1.8-.6-2.1-1.5-.7zM183.2 241.2c.2.6 1 1.4 1.6 1.6.7.2 1-.2.6-1.2-.7-1.8-2.8-2.2-2.2-.4zM179.2 242.2c-1.8 1.8-1.4 2.8 1.1 2.8 1.6 0 1.8-.3.8-.9-.7-.5-1-1.4-.7-2 .9-1.5.3-1.4-1.2.1zM131.5 244c-.3.5-.1 1 .4 1 .6 0 1.1-.5 1.1-1 0-.6-.2-1-.4-1-.3 0-.8.4-1.1 1zM67 246c-.9.6-1 1-.3 1 .6 0 1.5-.5 1.8-1 .8-1.2.4-1.2-1.5 0zM104.5 246c-.3.5-.1 1 .4 1 .6 0 1.1-.5 1.1-1 0-.6-.2-1-.4-1-.3 0-.8.4-1.1 1z"/>
        <path class="path" stroke="currentColor" stroke-width="1" d="M129.9 247.1c1.9 1.1 4.2 2.2 5 2.4.9.2 2.7.8 4.1 1.3 3.3 1.2 26.7 1.4 28.8.2.9-.5 3.2-1.3 5.1-1.8 1.9-.4 3.7-1.4 3.9-2.1.4-1.1-.1-1.2-1.9-.7-6.5 2-12.4 2.7-23.2 2.9-6.4.1-11.7-.1-11.7-.6 0-.4-.9-.7-2.1-.7-1.1 0-1.7-.5-1.4-1 .3-.6.2-1-.4-1-.5 0-1.1.5-1.3 1.1-.3.8-1.4.7-3.5-.5-4.5-2.3-5.4-2-1.4.5zM107.2 249.4c1 .7 1.4 1.7 1 2.1-.4.5-.1.5.6.1 1-.6 1-1.1.1-2.2-.6-.8-1.7-1.4-2.3-1.4-.6 0-.3.7.6 1.4zM115.8 248.7c.6.2 1.8.2 2.5 0 .6-.3.1-.5-1.3-.5-1.4 0-1.9.2-1.2.5zM62 252.1c0 .5.5.7 1 .4.6-.3 1-.8 1-1.1 0-.2-.4-.4-1-.4-.5 0-1 .5-1 1.1zM265.5 257c.3.5.8 1 1.1 1 .2 0 .4-.5.4-1 0-.6-.5-1-1.1-1-.5 0-.7.4-.4 1zM115 258c.8.5 2 1 2.5 1 .6 0 .3-.5-.5-1s-1.9-1-2.5-1c-.5 0-.3.5.5 1zM149 270c.8.5 2 1 2.5 1 .6 0 .3-.5-.5-1s-1.9-1-2.5-1c-.5 0-.3.5.5 1zM157 272c0 .5.5 1 1 1 .6 0 1-.5 1-1 0-.6-.4-1-1-1-.5 0-1 .4-1 1zM158 279c-1.3.9-1.3 1 0 1 .8 0 2.2-.5 3-1 1.3-.9 1.3-1 0-1-.8 0-2.2.5-3 1z"/>
        <path class="path" stroke="currentColor" stroke-width="1" d="M152.5 281.4c-2.2 1.5-2.6 1.6-5.4 1.6-1.5 0-6.1 4.2-16.9 15.6-1.1 1.2-1.1 1.4.3 1.4 1 0 3.5-1.8 5.7-4 3-3 4.6-3.9 6.4-3.6 1.3.3 2.6.1 2.9-.4.3-.4 1.4-.6 2.6-.3 1.2.4 2.5 0 3-.8.6-1 3.1-1.5 8.1-1.6 6.9-.2 7.4 0 10.1 2.8 3 3.3 3.3 4.9 1.5 6.7-1.5 1.5-.6 1.5 2.7 0 2.2-1 2.8-.9 3.5.2.5.8 1.1 1.2 1.5.9.3-.3-2.5-4-6.2-8.3-7.8-8.8-7.2-8.6-21.1-4-7.7 2.6-10.2 2.9-10.2 1.5 0-1 3-2.5 4.3-2.2.5.1.6-.3.3-.8s.7-1.1 2.2-1.5c1.5-.3 3.8-1.5 5.2-2.6 2.8-2.2 2.5-2.7-.5-.6zm12.9 4.5c.4.5-.3.7-1.4.4-2.3-.6-2.6-1.3-.6-1.3.8 0 1.7.4 2 .9zm-15.9 4.1c.3.5.1 1-.4 1-.6 0-1.1-.5-1.1-1 0-.6.2-1 .4-1 .3 0 .8.4 1.1 1zM111 292c-3.6.4-6 .8-5.5.9 2.4.7 25.1-.1 26.5-.9 1.7-1.1-10.6-1-21 0z"/>
</svg>