<svg xmlns="http://www.w3.org/2000/svg" version="1.1" class="w-full h-full absolute z-0"
    xmlns:xlink="http://www.w3.org/1999/xlink"
    xmlns:svgjs="http://svgjs.com/svgjs" width="1440" height="560" preserveAspectRatio="none" viewBox="0 0 1440 560">
    <g mask="url(&quot;#SvgjsMask1042&quot;)" fill="none">
        <rect width="1440" height="560" x="0" y="0" fill="rgba(43, 43, 43, 1)"></rect>
        <path d="M0,403.22C74.006,389.469,138.979,355.383,203.809,317.132C271.174,277.386,334.699,235.631,385.23,175.929C450.195,99.173,533.994,23.188,537.652,-77.303C541.413,-180.623,483.885,-284.302,404.39,-350.406C328.66,-413.379,222.154,-417.158,123.757,-421.477C42.773,-425.032,-34.275,-403.138,-109.512,-372.964C-178.626,-345.245,-236.427,-302.197,-293.352,-254.191C-360.397,-197.651,-451.274,-153.139,-471.4,-67.777C-491.683,18.252,-432.242,100.23,-395.913,180.807C-359.406,261.778,-336.519,359.637,-259.082,403.139C-182.232,446.311,-86.663,419.322,0,403.22" fill="#1c1c1c"></path>
        <path d="M1440 1267.879C1570.944 1261.8690000000001 1686.984 1184.281 1785.993 1098.376 1875.8020000000001 1020.453 1929.0149999999999 913.957 1974.518 804.106 2018.594 697.6990000000001 2066.257 586.211 2045.0349999999999 473.009 2024.15 361.606 1923.672 289.75 1860.4560000000001 195.67200000000003 1786.467 85.56299999999999 1764.6979999999999-77.28899999999999 1641.762-127.13900000000001 1519.316-176.78999999999996 1376.898-111.88499999999999 1261.738-47.10500000000002 1160.3 9.955000000000041 1120.079 129.08100000000002 1038.576 212.164 949.668 302.796 802.515 342.228 761.833 462.494 720.047 586.025 771.054 722.139 826.074 840.371 880.826 958.025 966.482 1056.943 1072.976 1131.1 1182.334 1207.252 1306.88 1273.989 1440 1267.879" fill="#3a3a3a"></path>
    </g>
    <defs>
        <mask id="SvgjsMask1042">
            <rect width="1440" height="560" fill="#ffffff"></rect>
        </mask>
    </defs>
</svg>