<svg xmlns="http://www.w3.org/2000/svg" version="1.1"
    xmlns:xlink="http://www.w3.org/1999/xlink" class="w-full h-full absolute z-0"
    xmlns:svgjs="http://svgjs.com/svgjs" width="1600" height="900" preserveAspectRatio="none" viewBox="0 0 1600 900">
    <g mask="url(&quot;#SvgjsMask1044&quot;)" fill="none">
        <rect width="1600" height="900" x="0" y="0" fill="rgba(168, 118, 62, 1)"></rect>
        <path d="M0,492.393C94.404,503.32,192.805,475.504,269.689,419.644C344.647,365.184,372.042,271.53,416.143,190.046C463.795,102.001,563.481,19.548,538.732,-77.458C513.483,-176.425,374.872,-190.269,301.094,-260.9C236.946,-322.312,213.9,-420.478,135.963,-463.046C49.962,-510.019,-57.547,-542.439,-148.751,-506.599C-239.245,-471.037,-275.643,-365.449,-325.227,-281.811C-366.748,-211.774,-391.778,-137.88,-413.809,-59.497C-439.217,30.901,-501.162,125.667,-463.996,211.9C-426.859,298.064,-312.639,312.994,-232.344,361.534C-154.704,408.469,-90.122,481.961,0,492.393" fill="#7e592f"></path>
        <path d="M1600 1668.141C1745.033 1663.7240000000002 1898.186 1626.816 2001.847 1525.286 2099.939 1429.21 2102.331 1277.661 2134.87 1144.267 2161.418 1035.433 2197.191 927.104 2174.522 817.396 2152.585 711.2280000000001 2084.707 623.356 2010.84 544.005 1939.085 466.923 1857.4479999999999 397.004 1756.204 368.019 1655.333 339.14099999999996 1551.449 364.413 1448.171 382.918 1332.701 403.607 1210.9470000000001 410.764 1118.0230000000001 482.364 1015.11 561.6600000000001 940.637 674.937 906.494 800.289 869.779 935.085 871.449 1079.578 919.641 1210.71 970.007 1347.758 1060.9389999999999 1468.784 1182.109 1550.251 1304.703 1632.675 1452.342 1672.638 1600 1668.141" fill="#c3935d"></path>
    </g>
    <defs>
        <mask id="SvgjsMask1044">
            <rect width="1600" height="900" fill="#ffffff"></rect>
        </mask>
    </defs>
</svg>